<svg xmlns="http://www.w3.org/2000/svg" width="983.822" height="764.178" viewBox="0 0 983.822 764.178">
  <g id="Group_35" data-name="Group 35" transform="translate(-1456.318 -573)">
    <g id="Group_30" data-name="Group 30" transform="translate(1449 573)">
      <path id="Path_230" data-name="Path 230" d="M394.011,64.911l-157.853,85.5a40.156,40.156,0,1,1-70.587,38.234L111.748,217.8,251.167,475.2,533.43,322.305Z" transform="translate(-104.43 -64.911)" fill="#e4ecf2"/>
      <circle id="Ellipse_100" data-name="Ellipse 100" cx="32.587" cy="32.587" r="32.587" transform="translate(62.016 73.081)" fill="#01579b"/>
      <path id="Path_231" data-name="Path 231" d="M790.385,753.975,961.057,698.3a40.156,40.156,0,1,1,76.319-24.894l58.194-18.982-90.777-278.3L699.608,475.679Z" transform="translate(-104.43 -64.911)" fill="#e4ecf2"/>
      <circle id="Ellipse_101" data-name="Ellipse 101" cx="32.587" cy="32.587" r="32.587" transform="translate(864.188 587.657)" fill="#01579b"/>
      <rect id="Rectangle_35" data-name="Rectangle 35" width="788" height="358" transform="translate(115.5 152.678)" fill="#3f3d56"/>
      <rect id="Rectangle_36" data-name="Rectangle 36" width="762" height="325" transform="translate(128.5 165.678)" fill="#fff"/>
      <rect id="Rectangle_37" data-name="Rectangle 37" width="74" height="25" transform="translate(739 475.178)" fill="#3f3d56"/>
      <rect id="Rectangle_38" data-name="Rectangle 38" width="54" height="7" transform="translate(681 494.178)" fill="#01579b"/>
      <path id="Path_232" data-name="Path 232" d="M190.5,288.678h291l45.116,21.979L598.5,345.678l47-88h133" fill="none" stroke="#3f3d56" stroke-miterlimit="10" stroke-width="2"/>
      <path id="Path_233" data-name="Path 233" d="M304.925,288.678l21.575,51h53" fill="none" stroke="#3f3d56" stroke-miterlimit="10" stroke-width="2"/>
      <path id="Path_234" data-name="Path 234" d="M385.807,288.678l73.693-40h52" fill="none" stroke="#3f3d56" stroke-miterlimit="10" stroke-width="2"/>
      <circle id="Ellipse_102" data-name="Ellipse 102" cx="9" cy="9" r="9" transform="translate(295.5 279.678)" fill="#01579b"/>
      <circle id="Ellipse_103" data-name="Ellipse 103" cx="9" cy="9" r="9" transform="translate(379.5 279.678)" fill="#01579b"/>
      <path id="Path_235" data-name="Path 235" d="M526.5,310.678l6,89h52" fill="none" stroke="#3f3d56" stroke-miterlimit="10" stroke-width="2"/>
      <path id="Path_236" data-name="Path 236" d="M626.65,292.971,569.5,248.678h54" fill="none" stroke="#3f3d56" stroke-miterlimit="10" stroke-width="2"/>
      <path id="Path_237" data-name="Path 237" d="M721.051,257.678l55.449,44h52" fill="none" stroke="#3f3d56" stroke-miterlimit="10" stroke-width="2"/>
      <circle id="Ellipse_104" data-name="Ellipse 104" cx="9" cy="9" r="9" transform="translate(517.5 301.678)" fill="#01579b"/>
      <circle id="Ellipse_105" data-name="Ellipse 105" cx="9" cy="9" r="9" transform="translate(711.5 248.678)" fill="#01579b"/>
      <circle id="Ellipse_106" data-name="Ellipse 106" cx="9" cy="9" r="9" transform="translate(617.5 283.678)" fill="#01579b"/>
      <line id="Line_1" data-name="Line 1" x2="52" transform="translate(327.5 347.678)" fill="none" stroke="#3f3d56" stroke-miterlimit="10" stroke-width="2"/>
      <path id="Path_238" data-name="Path 238" d="M615.93,322.589Z" transform="translate(-104.43 -64.911)" fill="none" stroke="#3f3d56" stroke-miterlimit="10" stroke-width="2"/>
      <path id="Path_239" data-name="Path 239" d="M727.93,321.589Z" transform="translate(-104.43 -64.911)" fill="none" stroke="#3f3d56" stroke-miterlimit="10" stroke-width="2"/>
      <path id="Path_240" data-name="Path 240" d="M727.93,329.589Z" transform="translate(-104.43 -64.911)" fill="none" stroke="#3f3d56" stroke-miterlimit="10" stroke-width="2"/>
      <path id="Path_241" data-name="Path 241" d="M932.93,374.589Z" transform="translate(-104.43 -64.911)" fill="none" stroke="#3f3d56" stroke-miterlimit="10" stroke-width="2"/>
      <path id="Path_242" data-name="Path 242" d="M913.93,382.589Z" transform="translate(-104.43 -64.911)" fill="none" stroke="#3f3d56" stroke-miterlimit="10" stroke-width="2"/>
      <path id="Path_243" data-name="Path 243" d="M688.93,472.589Z" transform="translate(-104.43 -64.911)" fill="none" stroke="#3f3d56" stroke-miterlimit="10" stroke-width="2"/>
      <circle id="Ellipse_107" data-name="Ellipse 107" cx="14.756" cy="14.756" r="14.756" transform="translate(794.786 60.774)" fill="none" stroke="#3f3d56" stroke-miterlimit="10" stroke-width="2"/>
      <ellipse id="Ellipse_108" data-name="Ellipse 108" cx="152" cy="28" rx="152" ry="28" transform="translate(81.807 708.178)" fill="#f2f2f2"/>
    </g>
    <g id="Group_34" data-name="Group 34" transform="translate(1608.581 934.241)">
      <path id="Path_290" data-name="Path 290" d="M401.458,556.311h12.26l5.832-47.288H401.456Z" transform="translate(-310.873 -191.241)" fill="#a0616a"/>
      <path id="Path_291" data-name="Path 291" d="M407.288,552.808H383.644v14.887h38.531a14.887,14.887,0,0,0-14.887-14.887Z" transform="translate(-295.686 -191.241)" fill="#2f2e41"/>
      <path id="Path_292" data-name="Path 292" d="M452.458,556.311h12.26l5.832-47.288H452.456Z" transform="translate(-412.873 -191.241)" fill="#a0616a"/>
      <path id="Path_293" data-name="Path 293" d="M458.288,552.808H434.644v14.887h38.531a14.887,14.887,0,0,0-14.887-14.887Z" transform="translate(-397.686 -191.241)" fill="#2f2e41"/>
      <path id="Path_294" data-name="Path 294" d="M686.051,710.914h12.48a4.526,4.526,0,0,0,4.484-4.128l10.576-127.4a1.5,1.5,0,0,1,2.984-.053l15.189,127.611a4.5,4.5,0,0,0,4.469,3.968h15.324a4.505,4.505,0,0,0,4.5-4.476c.034-8.016.088-16.09.143-24.165.486-71.922.989-146.292-14.029-175.428l-.137-.266-54.192-.927-.136.3c-16.4,35.83-11.42,115.875-6.607,193.283l.463,7.459a4.507,4.507,0,0,0,4.491,4.221Z" transform="translate(-644.904 -356.712)" fill="#2f2e41"/>
      <ellipse id="Ellipse_111" data-name="Ellipse 111" cx="24.561" cy="24.561" rx="24.561" ry="24.561" transform="translate(42.259 4.061)" fill="#a0616a"/>
      <path id="Path_295" data-name="Path 295" d="M748.63,511.094l-.677-28.16,4.872-21.972a35.416,35.416,0,0,0-7.875-31.118,34.878,34.878,0,0,0-29.22-12.115h0q-.531.041-1.064.089a35.023,35.023,0,0,0-24.131,12.907,35.43,35.43,0,0,0-7.764,26.574l5.894,51.517Z" transform="translate(-648.325 -356.712)" fill="#ccc"/>
      <path id="Path_296" data-name="Path 296" d="M664.705,561.564a10.056,10.056,0,0,1-.527-15.41L650.349,513.2l18.251,3.428L678.934,547.4a10.11,10.11,0,0,1-14.229,14.168Z" transform="translate(-543.536 -356.712)" fill="#a0616a"/>
      <path id="Path_297" data-name="Path 297" d="M776.321,565.514a10.056,10.056,0,0,0-.35-15.415L787.9,516.414l-18.026,4.461-8.566,31.3a10.11,10.11,0,0,0,15.012,13.336Z" transform="translate(-759.496 -356.712)" fill="#a0616a"/>
      <path id="Path_298" data-name="Path 298" d="M685.6,545.418a4.5,4.5,0,0,0,1.84-.393l10.52-4.713a4.494,4.494,0,0,0,2.444-5.485L682.76,480.007l-6.82-41.3a11.091,11.091,0,1,0-21.741,4.335l10.365,44.292,16.735,54.9a4.5,4.5,0,0,0,4.3,3.188Z" transform="translate(-566.63 -356.712)" fill="#ccc"/>
      <path id="Path_299" data-name="Path 299" d="M752.616,545.418a4.5,4.5,0,0,0,4.3-3.188l16.726-54.864,10.374-44.323a11.091,11.091,0,1,0-21.741-4.335l-6.838,41.372-17.63,54.747a4.5,4.5,0,0,0,2.444,5.485l10.521,4.713a4.5,4.5,0,0,0,1.839.393Z" transform="translate(-734.005 -356.712)" fill="#ccc"/>
      <path id="Path_300" data-name="Path 300" d="M728.376,358.185c6.826-2.957,15.743.722,18.5,7.632,1.714,4.3,1.191,9.151.246,13.683s-2.293,9.055-2.148,13.682,2.138,9.539,6.243,11.679c2.453,1.279,5.322,1.421,7.981,2.184s5.4,2.547,5.786,5.286c.579,4.145-4.448,7.3-4.414,11.486.036,4.434,5.577,7.067,6.295,11.442a7.6,7.6,0,0,1-2.929,6.75,19.906,19.906,0,0,1-6.884,3.333,118.809,118.809,0,0,1-59.255,3.376c-3.918-.782-7.951-1.838-11-4.426s-4.786-7.117-3.036-10.708c2.624-5.385,10.953-5.692,13.856-10.931,1.741-3.143.94-7,.573-10.575-.947-9.231-3.131-20.014-.838-29.005,2.072-8.123,6.57-18.62,13-24,4.614-3.86,13.422-2.1,19.318-.911Z" transform="translate(-662.062 -356.712)" fill="#2f2e41"/>
    </g>
  </g>
</svg>
