<svg xmlns="http://www.w3.org/2000/svg" width="1123.587" height="726.74" viewBox="0 0 1123.587 726.74">
  <g id="Group_3" data-name="Group 3" transform="translate(5.803 22)">
    <path id="Path_2" data-name="Path 2" d="M1096,413.08q.95-10.9,1-22.11c0-116.8-79.24-211.47-177-211.47-31.18,0-60.47,9.64-85.91,26.55C764.89,152.43,674.56,120,575.74,120,415,120,276.64,205.9,215.28,329.13c-3.41-.23-6.84-.36-10.3-.36-97.74,0-177,94.68-177,211.47,0,42.94,10.72,82.88,29.12,116.23h0c0,105.08,84.19,190.27,188,190.27H998.24c81.54,0,147.64-66.88,147.64-149.39h0C1162.44,665.17,1141.94,451.28,1096,413.08Z" transform="translate(-33.783 -142)" fill="#01579b" opacity="0.1"/>
  </g>
</svg>
