<svg id="Group_25" data-name="Group 25" xmlns="http://www.w3.org/2000/svg" xmlns:xlink="http://www.w3.org/1999/xlink" width="700" height="537.858" viewBox="0 0 700 537.858">
  <defs>
    <linearGradient id="linear-gradient" x1="0.459" y1="0.999" x2="0.459" y2="-0.006" gradientUnits="objectBoundingBox">
      <stop offset="0" stop-color="gray" stop-opacity="0.251"/>
      <stop offset="0.54" stop-color="gray" stop-opacity="0.122"/>
      <stop offset="1" stop-color="gray" stop-opacity="0.102"/>
    </linearGradient>
  </defs>
  <ellipse id="Ellipse_36" data-name="Ellipse 36" cx="290.897" cy="22.587" rx="290.897" ry="22.587" transform="translate(29.863 429.76)" fill="#01579b" opacity="0.1"/>
  <g id="Group_20" data-name="Group 20" transform="translate(465.328 62.991)" opacity="0.1">
    <path id="Path_89" data-name="Path 89" d="M899.228,501.146c-1.739-5.277-8.788-7.707-15.743-5.421a16.953,16.953,0,0,0-2.9,1.253c-.445-.123-.9-.233-1.369-.315a15.344,15.344,0,0,0,.431-4.648,16.838,16.838,0,0,0,7.461-14.7,16.859,16.859,0,0,0,7.433-14.7,16.264,16.264,0,0,0,5.633-6.379c3.354-6.639,1.964-14.1-3.108-16.667s-11.91.739-15.263,7.379a16.215,16.215,0,0,0-1.8,8.316,16.858,16.858,0,0,0-7.433,14.7,16.858,16.858,0,0,0-7.433,14.7,16.865,16.865,0,0,0-7.461,14.7,16.263,16.263,0,0,0-5.633,6.379,17.426,17.426,0,0,0-1.424,3.929,14.5,14.5,0,0,0-3.039-3.238,17.369,17.369,0,0,0-.685-3.08c-2.286-6.961-8.419-11.2-13.689-9.466s-7.707,8.782-5.421,15.743a15.791,15.791,0,0,0,5.175,7.584,17.38,17.38,0,0,0,.684,3.08,15.06,15.06,0,0,0,6.947,8.727,15.9,15.9,0,0,0-.568,2.669,17.31,17.31,0,0,0-5.161,10.205,17.3,17.3,0,0,0-5.161,10.212,16.86,16.86,0,0,0-3.422,4.661c-3.361,6.639-1.971,14.107,3.1,16.667s11.91-.732,15.27-7.379a16.85,16.85,0,0,0,1.711-5.537,17.31,17.31,0,0,0,5.161-10.205,17.3,17.3,0,0,0,5.161-10.212,17.255,17.255,0,0,0,5.1-10.205,17.256,17.256,0,0,0,5.175-10.226,16.507,16.507,0,0,0,2.32-2.738,16.058,16.058,0,0,0,8.4-.527,16.95,16.95,0,0,0,2.9-1.253,15.879,15.879,0,0,0,9.186-.329C896.7,512.563,900.96,506.43,899.228,501.146Z" transform="translate(-786.15 -240.496)" fill="#3f3d56"/>
    <g id="Group_18" data-name="Group 18" transform="translate(39.033 216.66)" opacity="0.1">
      <path id="Path_90" data-name="Path 90" d="M914.334,499.53a14.715,14.715,0,0,1-2.355,1.882,15.739,15.739,0,0,1-.76,5.77,17.919,17.919,0,0,0,1.437-2.348,16.865,16.865,0,0,0,1.677-5.3Z" transform="translate(-852.562 -476.347)"/>
      <path id="Path_91" data-name="Path 91" d="M925.194,478.06a14.718,14.718,0,0,1-2.355,1.882,15.741,15.741,0,0,1-.76,5.77,17.562,17.562,0,0,0,1.437-2.355,17.013,17.013,0,0,0,1.677-5.3Z" transform="translate(-855.988 -469.573)"/>
      <path id="Path_92" data-name="Path 92" d="M900.066,468.678a15.01,15.01,0,0,1,.116-3.018,17.065,17.065,0,0,0-3.272,4.5,17.545,17.545,0,0,0-1.04,2.553A15.573,15.573,0,0,1,900.066,468.678Z" transform="translate(-847.718 -465.66)"/>
      <path id="Path_93" data-name="Path 93" d="M833.07,597.671a16.152,16.152,0,0,1,2.019-2.314,15.689,15.689,0,0,1,.6-2.738,17.174,17.174,0,0,0-1.567,2.539,17.529,17.529,0,0,0-1.047,2.512Z" transform="translate(-827.902 -505.721)"/>
      <path id="Path_94" data-name="Path 94" d="M840.61,582.8a16.151,16.151,0,0,1,2.019-2.314,15.743,15.743,0,0,1,.568-2.669h0a17.568,17.568,0,0,0-1.506,2.457,18.3,18.3,0,0,0-1.081,2.526Z" transform="translate(-830.281 -501.051)"/>
      <path id="Path_95" data-name="Path 95" d="M903.619,520.925a14.252,14.252,0,0,1-2.348,1.875,15.371,15.371,0,0,1-.431,4.647,12.843,12.843,0,0,1,1.369.315,16.949,16.949,0,0,1,2.9-1.253c6.968-2.286,14.011.144,15.743,5.421a8,8,0,0,1,.219,4.107c2.293-2.7,3.244-5.982,2.259-8.994-1.739-5.277-8.789-7.707-15.743-5.421a16.951,16.951,0,0,0-2.9,1.253c-.445-.123-.9-.233-1.369-.315C903.448,522.014,903.544,521.473,903.619,520.925Z" transform="translate(-849.286 -483.047)"/>
      <path id="Path_96" data-name="Path 96" d="M828.141,607.49a17.166,17.166,0,0,0-1.567,2.539,18.18,18.18,0,0,0-1.054,2.56,16.774,16.774,0,0,1,2.053-2.327A15.7,15.7,0,0,1,828.141,607.49Z" transform="translate(-825.52 -510.413)"/>
      <path id="Path_97" data-name="Path 97" d="M889.156,490.148a15.055,15.055,0,0,1,.116-3.018,17.066,17.066,0,0,0-3.272,4.5,17.547,17.547,0,0,0-1.04,2.553A15.57,15.57,0,0,1,889.156,490.148Z" transform="translate(-844.276 -472.435)"/>
      <path id="Path_98" data-name="Path 98" d="M875.084,578.134a16.63,16.63,0,0,1-.684,3,18.267,18.267,0,0,0,1.431-2.355,17.446,17.446,0,0,0,1.116-2.738A16.591,16.591,0,0,1,875.084,578.134Z" transform="translate(-840.943 -500.489)"/>
      <path id="Path_99" data-name="Path 99" d="M860,607.954a16.532,16.532,0,0,1-.684,3,17.565,17.565,0,0,0,1.437-2.354,18.124,18.124,0,0,0,1.116-2.738A16.144,16.144,0,0,1,860,607.954Z" transform="translate(-836.185 -509.898)"/>
      <path id="Path_100" data-name="Path 100" d="M867.544,593.053a16.5,16.5,0,0,1-.684,3,18.257,18.257,0,0,0,1.465-2.314A17.455,17.455,0,0,0,869.44,591a16.591,16.591,0,0,1-1.9,2.053Z" transform="translate(-838.564 -505.209)"/>
      <path id="Path_101" data-name="Path 101" d="M882.625,563.2a16.428,16.428,0,0,1-.684,2.991,17.725,17.725,0,0,0,1.431-2.348,17.445,17.445,0,0,0,1.123-2.786A15.9,15.9,0,0,1,882.625,563.2Z" transform="translate(-843.323 -495.762)"/>
      <path id="Path_102" data-name="Path 102" d="M832,524.032c5.284-1.732,11.417,2.505,13.689,9.466a17.571,17.571,0,0,1,.684,3.087,14.5,14.5,0,0,1,3.039,3.237,17.47,17.47,0,0,1,1.424-3.936c.24-.465.5-.91.767-1.369a14.422,14.422,0,0,0-2.738-2.861,17.359,17.359,0,0,0-.684-3.08c-2.286-6.961-8.419-11.2-13.689-9.466-3.012.986-5.092,3.7-5.9,7.139A8,8,0,0,1,832,524.032Z" transform="translate(-826.489 -482.403)"/>
      <path id="Path_103" data-name="Path 103" d="M867.436,533.092a14.948,14.948,0,0,1,.123-3.012,16.927,16.927,0,0,0-3.279,4.5,17.157,17.157,0,0,0-1.04,2.546,15.741,15.741,0,0,1,4.2-4.031Z" transform="translate(-837.422 -485.987)"/>
      <path id="Path_104" data-name="Path 104" d="M878.3,511.612a14.957,14.957,0,0,1,.123-3.012,16.781,16.781,0,0,0-3.279,4.49,17.541,17.541,0,0,0-1.04,2.553,15.571,15.571,0,0,1,4.2-4.032Z" transform="translate(-840.849 -479.209)"/>
      <path id="Path_105" data-name="Path 105" d="M852.464,622.852a16.6,16.6,0,0,1-.684,3,17.614,17.614,0,0,0,2.553-5.127A16.139,16.139,0,0,1,852.464,622.852Z" transform="translate(-833.806 -514.59)"/>
    </g>
    <path id="Path_106" data-name="Path 106" d="M935.321,419.682a16.208,16.208,0,0,0,5.633-6.379c3.361-6.639,1.971-14.107-3.1-16.673s-11.91.739-15.27,7.385a16.208,16.208,0,0,0-1.793,8.337,16.858,16.858,0,0,0-7.433,14.7,16.161,16.161,0,0,0-5.633,6.379,16.894,16.894,0,0,0-1.034,2.526,14.271,14.271,0,0,1,7.372-5.476,8.378,8.378,0,0,0,10.636,5.366,14.271,14.271,0,0,1,0,9.179,17.434,17.434,0,0,0,1.424-2.327,16.209,16.209,0,0,0,1.793-8.316,16.817,16.817,0,0,0,7.433-14.7Z" transform="translate(-812.1 -226.944)" fill="#3f3d56"/>
    <path id="Path_107" data-name="Path 107" d="M1010.2,250.018a49.278,49.278,0,0,0,5.969-3.306l-22.129-16.167,26.01,13.395a49.37,49.37,0,0,0,18.48-34.435l-44.2.452,44.3-7.406a49.281,49.281,0,1,0-97.591,12.512,49.341,49.341,0,0,0-9.076,5.476l23.1,32.122-27.734-28.118a49.336,49.336,0,0,0-13.806,44.908,49.281,49.281,0,1,0,69.165,34.976,49.281,49.281,0,0,0,27.515-54.408Z" transform="translate(-805.277 -151.489)" fill="#01579b"/>
    <path id="Path_108" data-name="Path 108" d="M917.882,274.631a49.125,49.125,0,0,0-4.346,31.971A49.281,49.281,0,1,0,982.7,341.578C992.372,337.088,920.36,269.7,917.882,274.631Z" transform="translate(-805.284 -188.642)" opacity="0.1"/>
    <circle id="Ellipse_37" data-name="Ellipse 37" cx="7.317" cy="7.317" r="7.317" transform="translate(160.819)" fill="#01579b"/>
    <circle id="Ellipse_38" data-name="Ellipse 38" cx="7.317" cy="7.317" r="7.317" transform="translate(203.557 4.695)" fill="#01579b"/>
    <circle id="Ellipse_39" data-name="Ellipse 39" cx="7.317" cy="7.317" r="7.317" transform="translate(220.039 70.445)" fill="#01579b"/>
    <circle id="Ellipse_40" data-name="Ellipse 40" cx="7.317" cy="7.317" r="7.317" transform="translate(197.794 103.279)" fill="#01579b"/>
    <circle id="Ellipse_41" data-name="Ellipse 41" cx="7.317" cy="7.317" r="7.317" transform="translate(167.403 171.472)" fill="#01579b"/>
    <circle id="Ellipse_42" data-name="Ellipse 42" cx="7.317" cy="7.317" r="7.317" transform="translate(167.403 171.472)" opacity="0.1"/>
    <circle id="Ellipse_43" data-name="Ellipse 43" cx="7.317" cy="7.317" r="7.317" transform="translate(99.833 94.237)" fill="#01579b"/>
    <circle id="Ellipse_44" data-name="Ellipse 44" cx="7.317" cy="7.317" r="7.317" transform="translate(99.833 94.237)" opacity="0.1"/>
    <path id="Path_109" data-name="Path 109" d="M910.984,466.018c-4.867-2.457-6.338-9.418-3.5-15.838-.151.26-.294.527-.431.808-3.361,6.639-1.971,14.1,3.1,16.667s11.91-.739,15.264-7.379c.144-.274.267-.554.39-.828C922.325,465.546,915.843,468.483,910.984,466.018Z" transform="translate(-811.636 -244.116)" opacity="0.1"/>
    <path id="Path_110" data-name="Path 110" d="M900.424,486.9c-4.86-2.457-6.338-9.418-3.491-15.845-.151.267-.3.534-.438.808-3.361,6.639-1.971,14.107,3.1,16.667s11.91-.732,15.27-7.379c.137-.274.267-.548.39-.828C911.765,486.416,905.29,489.353,900.424,486.9Z" transform="translate(-808.304 -250.701)" opacity="0.1"/>
    <path id="Path_111" data-name="Path 111" d="M889.865,507.768c-4.86-2.457-6.338-9.418-3.491-15.839-.151.26-.3.527-.438.808-3.361,6.639-1.964,14.1,3.107,16.667s11.9-.739,15.264-7.378c.137-.274.267-.554.39-.828C901.213,507.3,894.731,510.233,889.865,507.768Z" transform="translate(-804.973 -257.289)" opacity="0.1"/>
    <path id="Path_112" data-name="Path 112" d="M879.343,528.7c-4.866-2.457-6.338-9.418-3.5-15.838-.151.26-.294.527-.438.8-3.354,6.639-1.964,14.107,3.107,16.674s11.91-.739,15.263-7.385c.144-.274.267-.548.39-.828C890.664,528.185,884.182,531.121,879.343,528.7Z" transform="translate(-801.652 -263.894)" opacity="0.1"/>
    <path id="Path_113" data-name="Path 113" d="M868.753,549.518c-4.866-2.457-6.338-9.418-3.5-15.838-.151.26-.294.527-.431.808-3.361,6.639-1.971,14.1,3.1,16.667s11.91-.739,15.27-7.379c.137-.274.267-.554.39-.828C880.109,549.046,873.613,551.982,868.753,549.518Z" transform="translate(-798.311 -270.463)" opacity="0.1"/>
    <path id="Path_114" data-name="Path 114" d="M858.194,570.4c-4.86-2.457-6.338-9.418-3.491-15.838-.151.26-.3.527-.438.8-3.361,6.639-1.971,14.107,3.107,16.673s11.875-.746,15.3-7.385c.137-.274.267-.547.39-.828C869.535,569.919,863.088,572.856,858.194,570.4Z" transform="translate(-794.979 -277.051)" opacity="0.1"/>
    <path id="Path_115" data-name="Path 115" d="M847.636,591.268c-4.86-2.457-6.338-9.418-3.491-15.838-.151.267-.294.527-.438.808-3.354,6.639-1.964,14.1,3.107,16.667s11.91-.739,15.263-7.379c.144-.274.267-.554.39-.828C858.984,590.8,852.5,593.732,847.636,591.268Z" transform="translate(-791.649 -283.637)" opacity="0.1"/>
    <path id="Path_116" data-name="Path 116" d="M837.083,612.148c-4.866-2.457-6.338-9.418-3.5-15.839q-.226.39-.431.8c-3.361,6.639-1.971,14.107,3.1,16.674s11.91-.739,15.27-7.385c.137-.274.26-.548.383-.828C848.425,611.669,841.943,614.578,837.083,612.148Z" transform="translate(-788.318 -290.225)" opacity="0.1"/>
    <path id="Path_117" data-name="Path 117" d="M830.143,625.865c-4.86-2.464-6.338-9.418-3.491-15.845-.151.267-.3.534-.438.808-3.361,6.639-1.971,14.107,3.1,16.667s11.91-.732,15.27-7.379c.137-.274.267-.548.39-.828C841.485,625.386,835,628.323,830.143,625.865Z" transform="translate(-786.128 -294.551)" opacity="0.1"/>
    <path id="Path_118" data-name="Path 118" d="M990.408,523.387a25.6,25.6,0,0,0,1.369-6.7,3.655,3.655,0,1,0-.555-7.269,25.537,25.537,0,0,0-13.443-17.324,3.658,3.658,0,0,0-6.53-3.3,3.422,3.422,0,0,0-.328.979,25.661,25.661,0,0,0-22.5,6.742,25.766,25.766,0,0,0-6.721-.2l-2.964,13.491-.178-13a25.613,25.613,0,1,0,13.689,49.281,3.614,3.614,0,0,0,1.54,1.478,3.655,3.655,0,0,0,5.01-4.709,25.569,25.569,0,0,0,3.285-2.683A25.633,25.633,0,0,0,988.992,526.6l-13.792-2.32Z" transform="translate(-815.804 -255.666)" fill="#01579b"/>
    <g id="Group_19" data-name="Group 19" transform="translate(102.593 239.665)" opacity="0.1">
      <path id="Path_119" data-name="Path 119" d="M969.085,533.876c-5.092-6.721-8.214-14.682-11.807-22.32a93.35,93.35,0,0,0-4.839-9.144l-2.7-3.142c-.452.383-.9.78-1.369,1.2a25.761,25.761,0,0,0-6.721-.2l-2.964,13.491-.178-13A25.613,25.613,0,1,0,952.2,550.037a3.614,3.614,0,0,0,1.54,1.479,3.655,3.655,0,0,0,5.01-4.709,25.572,25.572,0,0,0,3.285-2.683,25.661,25.661,0,0,0,15.359-2.272A36.077,36.077,0,0,1,969.085,533.876Z" transform="translate(-918.381 -499.27)"/>
    </g>
    <path id="Path_120" data-name="Path 120" d="M831.612,483.852a3.655,3.655,0,0,0-3.272-5.3,25.579,25.579,0,0,0-8.008-14.257,25.682,25.682,0,0,0,.753-8.008l-13.45-2.293,13.06-.821a26,26,0,0,0-.965-3.614,3.737,3.737,0,0,0,1.2-1.369,3.662,3.662,0,0,0-4.511-5.092,25.613,25.613,0,0,0-45.715,21.164,3.593,3.593,0,0,0-1.821,1.711,3.655,3.655,0,0,0,4.62,5.044,25.688,25.688,0,0,0,4.853,5.921,25.6,25.6,0,0,0,1.191,16.263l18.036-4.682-16.085,8.46a25.613,25.613,0,0,0,47.166-11.129,3.648,3.648,0,0,0,2.943-1.992Z" transform="translate(-768.494 -238.465)" fill="#01579b"/>
    <path id="Path_121" data-name="Path 121" d="M835.791,498.019a3.655,3.655,0,0,0-3.272-5.3,25.579,25.579,0,0,0-8.008-14.257c.109-.431.205-.856.287-1.287a9.022,9.022,0,0,0-1.321,1.17c-2.43,2.663-3.676,6.242-6.078,8.932-2.834,3.176-7.077,4.832-11.314,5.277a43.077,43.077,0,0,1-12.683-1.02c-3.463-.684-6.975-1.478-10.486-1.143a5.861,5.861,0,0,0-1,.13c.205.2.411.4.623.589a25.6,25.6,0,0,0,1.191,16.263l18.036-4.689-16.085,8.46a25.613,25.613,0,0,0,47.166-11.129,3.648,3.648,0,0,0,2.943-1.992Z" transform="translate(-772.673 -252.632)" opacity="0.1"/>
  </g>
  <g id="Group_23" data-name="Group 23" transform="translate(0 218.611)" opacity="0.1">
    <path id="Path_122" data-name="Path 122" d="M177.5,553.823c.876-2.663,4.428-3.888,7.933-2.738a8.745,8.745,0,0,1,1.458.63c.226-.062.459-.116.684-.157a7.706,7.706,0,0,1-.219-2.341,8.528,8.528,0,0,1-3.744-7.406,8.506,8.506,0,0,1-3.744-7.4,8.213,8.213,0,0,1-2.834-3.217c-1.684-3.34-1-7.1,1.567-8.4s6,.376,7.693,3.717a8.213,8.213,0,0,1,.9,4.2,8.467,8.467,0,0,1,3.744,7.4,8.487,8.487,0,0,1,3.744,7.406,8.467,8.467,0,0,1,3.744,7.4,8.213,8.213,0,0,1,2.84,3.217,8.668,8.668,0,0,1,.684,1.985,7.3,7.3,0,0,1,1.526-1.636,8.607,8.607,0,0,1,.356-1.554c1.157-3.5,4.244-5.64,6.906-4.791s3.881,4.428,2.738,7.933a7.987,7.987,0,0,1-2.608,3.826,8.671,8.671,0,0,1-.356,1.547,7.6,7.6,0,0,1-3.5,4.394,8.787,8.787,0,0,1,.287,1.369,8.6,8.6,0,0,1,1.732,2.348,8.433,8.433,0,0,1,.862,2.793,8.59,8.59,0,0,1,1.739,2.348,8.481,8.481,0,0,1,.862,2.793,8.523,8.523,0,0,1,1.739,2.355c1.691,3.34.992,7.1-1.561,8.392s-6-.37-7.693-3.717a8.542,8.542,0,0,1-.862-2.793,8.693,8.693,0,0,1-2.6-5.14,8.692,8.692,0,0,1-2.6-5.14,8.625,8.625,0,0,1-1.739-2.348,8.712,8.712,0,0,1-.862-2.793,8.6,8.6,0,0,1-1.732-2.348,8.432,8.432,0,0,1-.862-2.793,7.962,7.962,0,0,1-1.17-1.369,8.145,8.145,0,0,1-4.23-.26,9.1,9.1,0,0,1-1.465-.637,7.947,7.947,0,0,1-4.62-.164C178.774,559.573,176.632,556.486,177.5,553.823Z" transform="translate(-116.248 -422.509)" fill="#3f3d56"/>
    <g id="Group_21" data-name="Group 21" transform="translate(61.09 109.151)" opacity="0.1">
      <path id="Path_123" data-name="Path 123" d="M187.17,553a7.344,7.344,0,0,0,1.191.951,7.742,7.742,0,0,0,.383,2.9,8.17,8.17,0,0,1-.726-1.184A8.528,8.528,0,0,1,187.17,553Z" transform="translate(-180.827 -541.33)"/>
      <path id="Path_124" data-name="Path 124" d="M181.7,542.2a7.676,7.676,0,0,0,1.191.945,7.8,7.8,0,0,0,.383,2.909A8.693,8.693,0,0,1,181.7,542.2Z" transform="translate(-179.101 -537.922)"/>
      <path id="Path_125" data-name="Path 125" d="M194.1,537.469a7.6,7.6,0,0,0-.055-1.519,8.666,8.666,0,0,1,1.65,2.266,8.9,8.9,0,0,1,.52,1.287,7.817,7.817,0,0,0-2.115-2.033Z" transform="translate(-182.998 -535.95)"/>
      <path id="Path_126" data-name="Path 126" d="M228.224,602.463a7.971,7.971,0,0,0-1.013-1.164,8.487,8.487,0,0,0-.3-1.369,9.05,9.05,0,0,1,.787,1.273,8.9,8.9,0,0,1,.527,1.259Z" transform="translate(-193.366 -556.138)"/>
      <path id="Path_127" data-name="Path 127" d="M224.4,594.952a7.974,7.974,0,0,0-1.013-1.164,8.043,8.043,0,0,0-.287-1.369h0a8.673,8.673,0,0,1,1.287,2.519Z" transform="translate(-192.164 -553.768)"/>
      <path id="Path_128" data-name="Path 128" d="M188,563.8a6.925,6.925,0,0,0,1.184.938,7.46,7.46,0,0,0,.219,2.341,6.843,6.843,0,0,0-.684.158,9.066,9.066,0,0,0-1.465-.63c-3.5-1.15-7.057.075-7.926,2.738a3.984,3.984,0,0,0-.116,2.053,4.743,4.743,0,0,1-1.136-4.524c.876-2.663,4.428-3.888,7.933-2.738a8.75,8.75,0,0,1,1.458.63c.226-.062.459-.116.684-.157A7.063,7.063,0,0,1,188,563.8Z" transform="translate(-177.902 -544.706)"/>
      <path id="Path_129" data-name="Path 129" d="M230.71,607.4a8.752,8.752,0,0,1,.787,1.28,8.9,8.9,0,0,1,.527,1.287,8.032,8.032,0,0,0-1.013-1.171A8.484,8.484,0,0,0,230.71,607.4Z" transform="translate(-194.565 -558.495)"/>
      <path id="Path_130" data-name="Path 130" d="M199.575,548.3a7.586,7.586,0,0,0-.055-1.519,8.549,8.549,0,0,1,1.65,2.266,8.809,8.809,0,0,1,.52,1.28A7.79,7.79,0,0,0,199.575,548.3Z" transform="translate(-184.724 -539.367)"/>
      <path id="Path_131" data-name="Path 131" d="M207.071,592.6a8.174,8.174,0,0,0,.335,1.506,8.644,8.644,0,0,1-1.287-2.58,8.022,8.022,0,0,0,.951,1.075Z" transform="translate(-186.806 -553.488)"/>
      <path id="Path_132" data-name="Path 132" d="M214.665,607.637a8.671,8.671,0,0,0,.342,1.506,8.165,8.165,0,0,1-.726-1.184,8.816,8.816,0,0,1-.561-1.369A8.9,8.9,0,0,0,214.665,607.637Z" transform="translate(-189.204 -558.24)"/>
      <path id="Path_133" data-name="Path 133" d="M210.871,600.127a8.173,8.173,0,0,0,.335,1.506,8.82,8.82,0,0,1-.726-1.184,8.624,8.624,0,0,1-.561-1.369,8.022,8.022,0,0,0,.951,1.047Z" transform="translate(-188.005 -555.87)"/>
      <path id="Path_134" data-name="Path 134" d="M203.287,585.1a8.115,8.115,0,0,0,.335,1.513,8.509,8.509,0,0,1-.684-1.184,8.368,8.368,0,0,1-.568-1.369A7.614,7.614,0,0,0,203.287,585.1Z" transform="translate(-185.623 -551.13)"/>
      <path id="Path_135" data-name="Path 135" d="M224.02,565.362c-2.663-.876-5.749,1.259-6.9,4.791a8.613,8.613,0,0,0-.356,1.554,7.276,7.276,0,0,0-1.533,1.629,8.782,8.782,0,0,0-.719-1.985c-.116-.233-.246-.459-.383-.684a7.274,7.274,0,0,1,1.369-1.437,8.611,8.611,0,0,1,.356-1.554c1.157-3.5,4.244-5.64,6.906-4.791a4.743,4.743,0,0,1,2.971,3.6A4.057,4.057,0,0,0,224.02,565.362Z" transform="translate(-189.334 -544.39)"/>
      <path id="Path_136" data-name="Path 136" d="M210.515,569.919a7.6,7.6,0,0,0-.055-1.519,8.549,8.549,0,0,1,1.65,2.266,8.9,8.9,0,0,1,.52,1.287,7.72,7.72,0,0,0-2.115-2.033Z" transform="translate(-188.176 -546.189)"/>
      <path id="Path_137" data-name="Path 137" d="M205.045,559.1a7.618,7.618,0,0,0-.055-1.519,8.782,8.782,0,0,1,1.65,2.266,8.9,8.9,0,0,1,.52,1.287,7.816,7.816,0,0,0-2.115-2.033Z" transform="translate(-186.45 -542.775)"/>
      <path id="Path_138" data-name="Path 138" d="M218.465,615.147a8.145,8.145,0,0,0,.342,1.513,8.631,8.631,0,0,1-.726-1.191,8.814,8.814,0,0,1-.561-1.369A8.9,8.9,0,0,0,218.465,615.147Z" transform="translate(-190.403 -560.609)"/>
    </g>
    <path id="Path_139" data-name="Path 139" d="M168.938,512.786a8.159,8.159,0,0,1-2.834-3.21c-1.691-3.347-.992-7.1,1.561-8.4s6,.37,7.693,3.717a8.166,8.166,0,0,1,.9,4.189,8.487,8.487,0,0,1,3.744,7.406,8.214,8.214,0,0,1,2.841,3.21,9.054,9.054,0,0,1,.52,1.273,7.234,7.234,0,0,0-3.717-2.738,4.216,4.216,0,0,1-5.359,2.738,7.2,7.2,0,0,0,0,4.62,9.024,9.024,0,0,1-.684-1.17,8.214,8.214,0,0,1-.91-4.189,8.508,8.508,0,0,1-3.744-7.406Z" transform="translate(-112.799 -415.688)" fill="#3f3d56"/>
    <path id="Path_140" data-name="Path 140" d="M103.952,427.169a25.191,25.191,0,0,1-3-1.663l11.143-8.145L98.99,424.1a24.873,24.873,0,0,1-9.3-17.344l22.272.233-22.32-3.737a24.839,24.839,0,1,1,49.151,6.3,25.14,25.14,0,0,1,4.572,2.738L131.728,428.47l13.97-14.155a24.86,24.86,0,0,1,6.954,22.621,24.839,24.839,0,1,1-34.839,17.618,24.832,24.832,0,0,1-13.86-27.379Z" transform="translate(-88.962 -377.532)" fill="#01579b"/>
    <path id="Path_141" data-name="Path 141" d="M163.222,439.72a24.723,24.723,0,0,1,2.19,16.105,24.839,24.839,0,1,1-34.839,17.618C125.693,471.178,161.97,437.236,163.222,439.72Z" transform="translate(-101.723 -396.394)" opacity="0.1"/>
    <circle id="Ellipse_45" data-name="Ellipse 45" cx="3.689" cy="3.689" r="3.689" transform="translate(29.829)" fill="#01579b"/>
    <circle id="Ellipse_46" data-name="Ellipse 46" cx="3.689" cy="3.689" r="3.689" transform="translate(8.296 2.368)" fill="#01579b"/>
    <circle id="Ellipse_47" data-name="Ellipse 47" cx="3.689" cy="3.689" r="3.689" transform="translate(0 35.489)" fill="#01579b"/>
    <circle id="Ellipse_48" data-name="Ellipse 48" cx="3.689" cy="3.689" r="3.689" transform="translate(11.205 52.033)" fill="#01579b"/>
    <circle id="Ellipse_49" data-name="Ellipse 49" cx="3.689" cy="3.689" r="3.689" transform="translate(26.509 86.386)" fill="#01579b"/>
    <circle id="Ellipse_50" data-name="Ellipse 50" cx="3.689" cy="3.689" r="3.689" transform="translate(26.509 86.386)" opacity="0.1"/>
    <circle id="Ellipse_51" data-name="Ellipse 51" cx="3.689" cy="3.689" r="3.689" transform="translate(60.548 47.474)" fill="#01579b"/>
    <circle id="Ellipse_52" data-name="Ellipse 52" cx="3.689" cy="3.689" r="3.689" transform="translate(60.548 47.474)" opacity="0.1"/>
    <path id="Path_142" data-name="Path 142" d="M184.8,536.131c2.45-1.239,3.19-4.743,1.759-7.981.075.137.151.267.219.4,1.691,3.347.992,7.1-1.567,8.4s-6-.37-7.687-3.717c-.068-.137-.137-.274-.2-.417C179.089,535.891,182.354,537.37,184.8,536.131Z" transform="translate(-116.632 -424.338)" opacity="0.1"/>
    <path id="Path_143" data-name="Path 143" d="M190.117,546.651c2.45-1.239,3.2-4.75,1.766-7.981.075.13.151.267.219.4,1.691,3.347.992,7.1-1.567,8.4s-6-.37-7.687-3.717c-.075-.137-.137-.281-.2-.417C184.409,546.425,187.681,547.89,190.117,546.651Z" transform="translate(-118.311 -427.657)" opacity="0.1"/>
    <path id="Path_144" data-name="Path 144" d="M195.438,557.161c2.45-1.239,3.2-4.743,1.759-7.981.082.137.151.267.226.411,1.691,3.34.986,7.1-1.567,8.392s-6-.37-7.687-3.717c-.075-.137-.137-.274-.2-.418C189.722,556.921,192.987,558.4,195.438,557.161Z" transform="translate(-119.989 -430.973)" opacity="0.1"/>
    <path id="Path_145" data-name="Path 145" d="M200.757,567.681c2.45-1.239,3.2-4.743,1.759-7.981.075.13.151.267.219.4,1.7,3.347.992,7.1-1.561,8.4s-6-.37-7.693-3.717c-.068-.137-.13-.281-.192-.418C195.042,567.434,198.307,568.92,200.757,567.681Z" transform="translate(-121.668 -434.293)" opacity="0.1"/>
    <path id="Path_146" data-name="Path 146" d="M206.074,578.194c2.45-1.239,3.19-4.743,1.759-7.974.075.13.151.267.219.4,1.691,3.347.992,7.1-1.561,8.4s-6-.376-7.693-3.717c-.068-.144-.13-.281-.2-.417C200.359,577.954,203.624,579.433,206.074,578.194Z" transform="translate(-123.343 -437.612)" opacity="0.1"/>
    <path id="Path_147" data-name="Path 147" d="M211.394,588.711c2.45-1.239,3.19-4.743,1.759-7.981.075.137.151.267.219.4,1.691,3.347.992,7.1-1.561,8.4s-6-.37-7.693-3.717c-.068-.137-.137-.274-.2-.417C205.679,588.444,208.944,589.95,211.394,588.711Z" transform="translate(-125.022 -440.929)" opacity="0.1"/>
    <path id="Path_148" data-name="Path 148" d="M216.714,599.231c2.444-1.239,3.19-4.75,1.759-7.981.075.13.151.267.219.4,1.691,3.347.992,7.1-1.567,8.4s-6-.376-7.687-3.717c-.068-.144-.137-.281-.2-.417C211,598.984,214.264,600.47,216.714,599.231Z" transform="translate(-126.701 -444.248)" opacity="0.1"/>
    <path id="Path_149" data-name="Path 149" d="M222.027,609.741c2.45-1.239,3.2-4.743,1.759-7.981.082.137.151.267.226.411,1.691,3.34.986,7.1-1.567,8.392s-6-.37-7.687-3.717c-.075-.137-.137-.274-.2-.417C216.319,609.5,219.577,610.98,222.027,609.741Z" transform="translate(-128.379 -447.564)" opacity="0.1"/>
    <path id="Path_150" data-name="Path 150" d="M225.554,616.651c2.45-1.239,3.19-4.743,1.759-7.981.075.137.151.267.219.411,1.691,3.34.992,7.1-1.561,8.391s-6-.37-7.693-3.717c-.068-.137-.137-.274-.2-.418C219.819,616.425,223.083,617.89,225.554,616.651Z" transform="translate(-129.49 -449.745)" opacity="0.1"/>
    <path id="Path_151" data-name="Path 151" d="M131.7,565.029a12.71,12.71,0,0,1-.684-3.374,1.841,1.841,0,1,1,.281-3.662,12.881,12.881,0,0,1,6.769-8.727,1.844,1.844,0,1,1,3.292-1.663,1.671,1.671,0,0,1,.164.493,12.95,12.95,0,0,1,11.335,3.422,12.784,12.784,0,0,1,3.422-.1l1.492,6.79.034-6.55a12.9,12.9,0,1,1-6.9,24.839,1.889,1.889,0,0,1-.773.746,1.848,1.848,0,0,1-2.533-2.375,12.892,12.892,0,0,1-1.65-1.369,12.916,12.916,0,0,1-13.552-6.845l6.947-1.17Z" transform="translate(-101.439 -430.156)" fill="#01579b"/>
    <g id="Group_22" data-name="Group 22" transform="translate(36.769 120.739)" opacity="0.1">
      <path id="Path_152" data-name="Path 152" d="M146.593,570.313c2.567-3.422,4.141-7.392,5.948-11.239a45.654,45.654,0,0,1,2.437-4.613l1.369-1.581c.233.2.459.4.684.6a12.784,12.784,0,0,1,3.422-.1l1.492,6.79.021-6.53a12.9,12.9,0,1,1-6.9,24.839,1.889,1.889,0,0,1-.773.746,1.848,1.848,0,0,1-2.533-2.375,12.891,12.891,0,0,1-1.65-1.369,13,13,0,0,1-7.741-1.143,18.2,18.2,0,0,0,4.223-4.031Z" transform="translate(-142.37 -552.88)"/>
    </g>
    <path id="Path_153" data-name="Path 153" d="M214.818,545.119a1.834,1.834,0,0,1,.814-2.471,1.806,1.806,0,0,1,.835-.2,12.9,12.9,0,0,1,4.031-7.187,12.806,12.806,0,0,1-.376-4.031l6.769-1.136-6.578-.418a12.766,12.766,0,0,1,.493-1.821,1.807,1.807,0,0,1-.609-.684,1.848,1.848,0,0,1,2.272-2.567,12.752,12.752,0,0,1,4.7-4.059A12.9,12.9,0,0,1,245.5,535.263a1.841,1.841,0,0,1-1.41,3.4,12.827,12.827,0,0,1-2.444,2.971,12.936,12.936,0,0,1-.6,8.214l-9.055-2.382,8.1,4.264a12.909,12.909,0,0,1-22.471-1.054,13.081,13.081,0,0,1-1.328-4.552A1.827,1.827,0,0,1,214.818,545.119Z" transform="translate(-128.398 -421.498)" fill="#01579b"/>
    <path id="Path_154" data-name="Path 154" d="M214.818,552.25a1.834,1.834,0,0,1,.814-2.471,1.806,1.806,0,0,1,.835-.2,12.9,12.9,0,0,1,4.031-7.187c-.055-.212-.1-.431-.144-.643a4.976,4.976,0,0,1,.684.589c1.225,1.369,1.855,3.142,3.06,4.5a8.836,8.836,0,0,0,5.7,2.663,21.588,21.588,0,0,0,6.386-.513,18.721,18.721,0,0,1,5.284-.582l.507.068-.315.294a12.937,12.937,0,0,1-.6,8.214l-9.076-2.382,8.1,4.264a12.909,12.909,0,0,1-22.471-1.054,13.081,13.081,0,0,1-1.328-4.552A1.827,1.827,0,0,1,214.818,552.25Z" transform="translate(-128.398 -428.629)" opacity="0.1"/>
  </g>
  <path id="Path_155" data-name="Path 155" d="M415.86,100.5a13.847,13.847,0,0,0-8.036.876,11.855,11.855,0,0,1-9.651,0,13.525,13.525,0,0,0-11.348.226,7.036,7.036,0,0,1-3.265.815c-4.6,0-8.426-4.634-9.22-10.746a8.946,8.946,0,0,0,2.3-2.478c2.7-4.346,6.845-7.139,11.561-7.139s8.823,2.738,11.52,7.057a8.9,8.9,0,0,0,7.639,4.2h.123C411.109,93.289,414.278,96.225,415.86,100.5Z" transform="translate(-178.796 -64.966)" fill="#01579b" opacity="0.1"/>
  <path id="Path_156" data-name="Path 156" d="M429.824,73.455l-7.433,4.716,4.511-8.214a7.351,7.351,0,0,0-4.5-1.6h-.116a8.823,8.823,0,0,1-1.54-.116l-2.526,1.6,1.081-1.964a9.028,9.028,0,0,1-4.408-3.32l-4.524,2.827,2.847-5.181a13.194,13.194,0,0,0-10.1-5.113c-4.689,0-8.9,2.793-11.567,7.139a8.638,8.638,0,0,1-7.645,4.107h-.226c-5.175,0-9.377,5.866-9.377,13.114s4.2,13.107,9.377,13.107a7.036,7.036,0,0,0,3.265-.815,13.5,13.5,0,0,1,11.348-.219,11.889,11.889,0,0,0,9.651,0,13.518,13.518,0,0,1,11.246.219,7.084,7.084,0,0,0,3.231.794c5.181,0,9.377-5.866,9.377-13.107a16.673,16.673,0,0,0-1.971-7.974Z" transform="translate(-178.783 -57.09)" fill="#01579b" opacity="0.1"/>
  <path id="Path_157" data-name="Path 157" d="M181.656,235.373a19.85,19.85,0,0,0-11.478,1.246,16.913,16.913,0,0,1-13.785-.034,19.316,19.316,0,0,0-16.208.322,10.1,10.1,0,0,1-4.668,1.164c-6.571,0-12.04-6.619-13.176-15.352a12.6,12.6,0,0,0,3.285-3.539c3.854-6.208,9.822-10.2,16.523-10.2s12.594,3.943,16.427,10.082a12.676,12.676,0,0,0,10.951,6h.171C174.886,225.058,179.417,229.254,181.656,235.373Z" transform="translate(-99.28 -105.017)" fill="#01579b" opacity="0.1"/>
  <path id="Path_158" data-name="Path 158" d="M201.61,196.714l-10.623,6.735,6.448-11.725a10.5,10.5,0,0,0-6.427-2.293h-.171a12.431,12.431,0,0,1-2.2-.164l-3.587,2.32,1.547-2.806a12.8,12.8,0,0,1-6.3-4.791l-6.448,4.107,4.059-7.461c-3.771-4.524-8.85-7.3-14.435-7.3-6.7,0-12.669,3.984-16.523,10.192A12.355,12.355,0,0,1,136,189.425h-.363c-7.4,0-13.395,8.385-13.395,18.734s6,18.734,13.395,18.734a10,10,0,0,0,4.668-1.17,19.316,19.316,0,0,1,16.208-.315,16.913,16.913,0,0,0,13.785.034,19.336,19.336,0,0,1,16.071.308,10.027,10.027,0,0,0,4.613,1.143c7.4,0,13.395-8.392,13.395-18.734a23.792,23.792,0,0,0-2.765-11.444Z" transform="translate(-99.249 -93.771)" fill="#01579b" opacity="0.1"/>
  <path id="Path_159" data-name="Path 159" d="M836.62,139.48a13.853,13.853,0,0,1,8.036.876,11.834,11.834,0,0,0,9.644,0,13.525,13.525,0,0,1,11.348.226,7.057,7.057,0,0,0,3.265.815c4.6,0,8.433-4.634,9.227-10.746a8.851,8.851,0,0,1-2.3-2.478c-2.683-4.36-6.879-7.173-11.581-7.173s-8.816,2.738-11.513,7.057a8.9,8.9,0,0,1-7.652,4.223h-.116C841.336,132.273,838.16,135.209,836.62,139.48Z" transform="translate(-324.662 -77.256)" fill="#01579b" opacity="0.1"/>
  <path id="Path_160" data-name="Path 160" d="M815.25,112.471l7.433,4.7-4.517-8.214a7.365,7.365,0,0,1,4.5-1.6h.123a8.9,8.9,0,0,0,1.54-.116l2.519,1.6-1.081-1.964a9.042,9.042,0,0,0,4.449-3.306l4.511,2.861-2.854-5.181a13.154,13.154,0,0,1,10.109-5.113c4.689,0,8.9,2.793,11.567,7.139a8.631,8.631,0,0,0,7.645,4.107h.246c5.181,0,9.377,5.866,9.377,13.114s-4.2,13.107-9.377,13.107a7.077,7.077,0,0,1-3.265-.815,13.5,13.5,0,0,0-11.348-.219,11.875,11.875,0,0,1-9.644,0,13.532,13.532,0,0,0-11.253.219,7.064,7.064,0,0,1-3.231.794c-5.175,0-9.377-5.866-9.377-13.107a16.674,16.674,0,0,1,1.93-8.008Z" transform="translate(-317.31 -69.412)" fill="#01579b" opacity="0.1"/>
  <ellipse id="Ellipse_53" data-name="Ellipse 53" cx="78.713" cy="13.689" rx="78.713" ry="13.689" transform="translate(342.663 504.367)" fill="#01579b" opacity="0.1"/>
  <path id="Path_161" data-name="Path 161" d="M499.214,635.927,377.25,634.36l.363-3.128,5.893-51.6H490.618l7.878,51.6.6,3.915Z" transform="translate(-119.036 -182.895)" fill="#d0d2d5"/>
  <path id="Path_162" data-name="Path 162" d="M499.1,658.935H438.236l-60.986-.787.363-3.128H498.5Z" transform="translate(-119.036 -206.683)" opacity="0.1"/>
  <rect id="Rectangle_31" data-name="Rectangle 31" width="161.841" height="3.908" transform="translate(237.885 449.124)" fill="#d0d2d5"/>
  <path id="Path_163" data-name="Path 163" d="M680.544,179.212A10.178,10.178,0,0,0,670.414,169H218.45a10.178,10.178,0,0,0-10.13,10.226V453.182H680.544Z" transform="translate(-126.41 -92.402)" fill="#3f3d56"/>
  <path id="Path_164" data-name="Path 164" d="M208.32,580.19v32.088a10.13,10.13,0,0,0,10.13,10.13H670.414a10.13,10.13,0,0,0,10.13-10.13V580.19Z" transform="translate(-126.41 -222.148)" fill="#d0d2d5"/>
  <rect id="Rectangle_32" data-name="Rectangle 32" width="435.476" height="246.277" transform="translate(101.458 93.778)" fill="#fff"/>
  <path id="Path_165" data-name="Path 165" d="M551.851,614.344a10.541,10.541,0,0,0,8.3-4.032h0a10.979,10.979,0,0,0,.821-1.2l-5.8-.979,6.263.041a10.554,10.554,0,0,0,.2-8.357l-8.4,4.353,7.748-5.695a10.554,10.554,0,1,0-17.433,11.814h0a10.54,10.54,0,0,0,8.3,4.059Z" transform="translate(-231.482 -226.26)" fill="#01579b"/>
  <path id="Path_166" data-name="Path 166" d="M483.48,584.77l48.658,48.871-7.467-48.871Z" transform="translate(-152.556 -184.517)" opacity="0.1"/>
  <rect id="Rectangle_33" data-name="Rectangle 33" width="435.948" height="14.387" transform="translate(101.116 93.806)" fill="#444053" opacity="0.1"/>
  <rect id="Rectangle_34" data-name="Rectangle 34" width="131.348" height="8.754" rx="0.58" transform="translate(252.478 96.311)" fill="#01579b" opacity="0.3"/>
  <path id="Path_167" data-name="Path 167" d="M641.417,203.5h-.322l-.116-.1a2.662,2.662,0,0,0,.616-1.7,2.587,2.587,0,1,0-2.58,2.608,2.669,2.669,0,0,0,1.7-.623l.116.1v.322l2.005,2.005.6-.6Zm-2.4,0a1.793,1.793,0,1,1,1.277-.528A1.807,1.807,0,0,1,639.014,203.5Z" transform="translate(-261.492 -101.909)" fill="#3f3d56"/>
  <circle id="Ellipse_54" data-name="Ellipse 54" cx="2.635" cy="2.635" r="2.635" transform="translate(106.318 98.364)" fill="#fa5959" opacity="0.8"/>
  <circle id="Ellipse_55" data-name="Ellipse 55" cx="2.635" cy="2.635" r="2.635" transform="translate(113.566 98.364)" fill="#fed253" opacity="0.8"/>
  <circle id="Ellipse_56" data-name="Ellipse 56" cx="2.635" cy="2.635" r="2.635" transform="translate(120.821 98.364)" fill="#8ccf4d" opacity="0.8"/>
  <path id="Path_170" data-name="Path 170" d="M716.206,705.421a6.543,6.543,0,0,0-1.485-1.65c-2.991-2.827-4.381-6.975-5.12-11.04s-.951-8.214-2.135-12.19a40.211,40.211,0,0,0-2.409-5.934c-.685-1.465-1.547-4.333-2.8-5.359a1.848,1.848,0,0,0-.862-.417,10.165,10.165,0,0,0-2.478-3.3c-1.958-1.773-4.346-3.183-5.654-5.476a12.322,12.322,0,0,0-1.321-2.252c-.883-.972-2.279-1.369-3.094-2.4-1.061-1.328-.821-3.231-.684-4.921s0-3.717-1.465-4.606c-.876-.541-2.005-.486-2.916-.965-1.369-.684-1.91-2.409-1.882-3.949s.507-3.039.63-4.579c.383-4.9-2.847-9.774-1.6-14.524a29.531,29.531,0,0,1,2.355-5.038,10.523,10.523,0,0,0,.684-1.738,24.459,24.459,0,0,0,6.667,1.608c-3.771-8.46-2.813-18.289-4.572-27.378l.226-.308a14.264,14.264,0,0,0,2.888-8.118c0-3.381-1.581-6.544-2.293-9.856-.609-2.813-.582-5.756-1.369-8.522a25.775,25.775,0,0,0-2.163-4.942q-1.28-2.375-2.69-4.675-1.314-4.353-2.635-8.706c-1.232-4.073-2.5-8.214-4.894-11.732-.876-1.287-1.143-3.9-2.491-4.682a6.03,6.03,0,0,0-3.559-.623c-1.9-1.068-3.573-2.608-3.813-4.716a4.573,4.573,0,0,1,.137-1.369h.233c3.012-.274,4.538-2.93,6.105-5.257,2.533-3.765,1.567-8.857,0-13.142a8.9,8.9,0,0,0-2.053-3.621c-2.2-2.053-5.674-1.6-8.508-2.594-.951-.329-1.841-.828-2.813-1.061a8.418,8.418,0,0,0-5.578,1.047,55.5,55.5,0,0,1-5.14,2.676c-1.807.684-4.038,1.225-4.483,3.08a3.423,3.423,0,0,0,.151,1.869,6.968,6.968,0,0,0,2.115,3.053,12.19,12.19,0,0,0,7.44,16.988c.52.835,1.006,1.684,1.451,2.553a8.419,8.419,0,0,1,1.191,4.983,15.362,15.362,0,0,0-1.369,1.677,32.257,32.257,0,0,0-4.107,9.151,96.957,96.957,0,0,0-3.306,12.505c-1.67,3.552-3.71,6.947-4.921,10.678a24.1,24.1,0,0,1-6.42-.862l-5.777-1.307a13.058,13.058,0,0,1-5.681-2.279c-.835-.684-1.485-1.595-2.334-2.272s-2.553-1.472-3.484-.91a2.741,2.741,0,0,0-.472.363c-.849-1.718-1.656-3.422-2.642-5.086-1.417-2.327-3.525-4.456-6.194-4.9a6.3,6.3,0,0,0-4.648,1.081c-1.561,1.109-2.539,3.422-1.369,4.983a9.106,9.106,0,0,0,.951.972,19.986,19.986,0,0,1,2.115,2.936,15,15,0,0,0,9.233,6l-.24.684c-.486,1.424-1.52,3.142-1.259,4.62l25.695,8.8a15.831,15.831,0,0,0,5.174,1.143,8.356,8.356,0,0,0,2.053-.274V580.7c.068,9.028-1.369,17.995-1.636,27.016-.048,1.65,0,3.422,1.04,4.709,1.164,1.41,3.231,1.691,5.031,1.369a11.7,11.7,0,0,0,1.273-.287,47.456,47.456,0,0,1,1.314,6.92l1.7,12.225a18.576,18.576,0,0,1,.267,3.792c-.2,2.868-1.711,5.435-2.806,8.083s-1.745,5.818-.308,8.3c.452.767,1.075,1.417,1.478,2.211a8.995,8.995,0,0,1,.685,3.888q.157,5.531.3,11.075a1.252,1.252,0,0,0-.862.171c-1.424,1.109-1.266,6.386-1.369,8.022-.109,2.738,0,5.53-.151,8.3a49.428,49.428,0,0,1-1.786,11.013,7.043,7.043,0,0,1-1.567,3.155,6.665,6.665,0,0,1-2.786,1.444,31.821,31.821,0,0,1-10.548,1.437,10.381,10.381,0,0,0-4.292.363c-1.342.548-2.423,2.053-1.937,3.422.418,1.15,1.684,1.7,2.827,2.129a44.848,44.848,0,0,1,7.529,3.463,20.361,20.361,0,0,0,2.909,1.65,15,15,0,0,0,3,.739l12.136,2.094c2.485.424,5.476.685,7.057-1.369a6.221,6.221,0,0,0,.938-4.025c-.068-2.738-.616-5.524-.26-8.261A25.423,25.423,0,0,1,664.961,699q1.814-5.387,3.641-10.767a56.583,56.583,0,0,0,2.923-11.013c.171-1.369.157-2.93-.89-3.785a2.423,2.423,0,0,0-.9-.465c-.041-3.3-.472-6.605-.287-9.9.048-.821.13-1.643.2-2.471a12.052,12.052,0,0,1,1.691,2c1.171,1.834,1.6,4.257,3.388,5.476,1.519,1.04,3.771.986,4.839,2.491a7.023,7.023,0,0,1,.767,1.855,13.225,13.225,0,0,0,2.738,4.346,21.9,21.9,0,0,0,1.691,4.34q1.513,3.2,3.012,6.372a74.312,74.312,0,0,0,3.422,6.687,18.858,18.858,0,0,1,2.293,4.422c.965,3.381-.609,7.091-3.1,9.582s-5.777,3.922-9.014,5.257a2.54,2.54,0,0,0-.917.548,1.773,1.773,0,0,0-.417,1.191,3.864,3.864,0,0,0,2.793,3.422,10.444,10.444,0,0,0,4.675.171c8.747-1.061,17.467-3.2,25.2-7.447a8.9,8.9,0,0,0,3-2.32,3.511,3.511,0,0,0,.5-3.566Z" transform="translate(-250.087 -195.345)" fill="url(#linear-gradient)"/>
  <path id="Path_171" data-name="Path 171" d="M712.152,574.9q2.19,3.361,4.107,6.886a25.322,25.322,0,0,1,2.17,4.908c.794,2.738.773,5.661,1.369,8.453.684,3.285,2.286,6.42,2.286,9.788a14.074,14.074,0,0,1-2.888,8.049,38.207,38.207,0,0,1-6.037,6.229,128.419,128.419,0,0,1-8.542-41.9,14.7,14.7,0,0,1,.643-5.886c.445-1.164,2.58-4.353,3.956-3.1.5.459.63,2.526.938,3.217a24.728,24.728,0,0,0,2,3.354Z" transform="translate(-283.001 -218.314)" fill="#2f2e41"/>
  <path id="Path_172" data-name="Path 172" d="M712.152,574.9q2.19,3.361,4.107,6.886a25.322,25.322,0,0,1,2.17,4.908c.794,2.738.773,5.661,1.369,8.453.684,3.285,2.286,6.42,2.286,9.788a14.074,14.074,0,0,1-2.888,8.049,38.207,38.207,0,0,1-6.037,6.229,128.419,128.419,0,0,1-8.542-41.9,14.7,14.7,0,0,1,.643-5.886c.445-1.164,2.58-4.353,3.956-3.1.5.459.63,2.526.938,3.217a24.728,24.728,0,0,0,2,3.354Z" transform="translate(-283.001 -218.314)" opacity="0.1"/>
  <path id="Path_173" data-name="Path 173" d="M420.881,432.767c-5.414,5.407-6.064,7.789-9.316,8.864s-14.949,7.132-11.273,13.847l9.884,6.53.287.192,1.513,4.545-14.949,26.612s-24.641-11.266-27.057,5.4-.883,21.218-1.533,30.116.212,11.472-1.958,11.472-3.025-5.845-3.025-5.845-.137-.267-.376-.767c-3.224-6.7-25.106-55.893,9.945-89.706,0,0,16.235-1.068,20.144-19.685,2.7-12.868,12.129-11.759,18.4-9.138a20.794,20.794,0,0,1,5.626,3.306,27.708,27.708,0,0,1,4.031,4.791C423.01,426.121,423.982,429.659,420.881,432.767Z" transform="translate(-172.182 -169.564)" fill="#d0d2d5"/>
  <path id="Path_174" data-name="Path 174" d="M414.236,484.557l1.513,4.545L400.8,515.714s-24.641-11.266-27.057,5.4-.883,21.218-1.533,30.116.212,11.472-1.958,11.472-3.025-5.845-3.025-5.845-.137-.267-.376-.767c-1.088-8.323-6.605-57.009,13.395-54.422,0,0,16.229,7.584,18.823,4.559,2.053-2.4,11.17-16.174,14.88-21.828Z" transform="translate(-175.954 -191.922)" opacity="0.1"/>
  <path id="Path_175" data-name="Path 175" d="M438.758,424.01l-9.884,11.232S417.4,450.6,415.014,449.951a11.108,11.108,0,0,0-2.17-.253,4.216,4.216,0,0,1-2.738-7.1c3.915-4.107,11.129-11.9,11.6-13.635s5.065-9.322,7.365-13.039a20.793,20.793,0,0,1,5.626,3.306A27.712,27.712,0,0,1,438.758,424.01Z" transform="translate(-189.717 -170.314)" opacity="0.1"/>
  <path id="Path_176" data-name="Path 176" d="M720.791,609.081c-1.677,3.354-10.267,15.934-14.025,21.431l-1.759,2.587s-.684,4.545-11.9-1.088-274.8-116.851-274.8-116.851l-1.786-5.366,13-19.473L718.416,601.935S722.961,604.748,720.791,609.081Z" transform="translate(-192.105 -193.79)" fill="#454b69"/>
  <path id="Path_177" data-name="Path 177" d="M706.766,639.489l-1.759,2.587s-.684,4.545-11.9-1.088-274.8-116.851-274.8-116.851l-1.786-5.366Z" transform="translate(-192.105 -202.767)" opacity="0.1"/>
  <path id="Path_178" data-name="Path 178" d="M603.7,588.91c-2.676-.438-5.647-.226-7.728,1.513a6.359,6.359,0,0,0-2.218,4.216c-.178,1.9.924,4.148,2.827,4.292a9,9,0,0,0,1.369-.089,20.456,20.456,0,0,1,3.587.3,14.64,14.64,0,0,0,12.478-5.038c1.636-2.053-.52-2.943-2.45-3.354C608.919,590.19,606.339,589.334,603.7,588.91Z" transform="translate(-248.022 -224.837)" fill="#fbbebe"/>
  <path id="Path_179" data-name="Path 179" d="M673.963,671.32l1.7,12.06a18.378,18.378,0,0,1,.26,3.771c-.2,2.841-1.711,5.387-2.8,8.015s-1.752,5.777-.308,8.214c.445.76,1.068,1.41,1.472,2.2a8.843,8.843,0,0,1,.685,3.854l.465,17.112a107.685,107.685,0,0,0,15.866-.089.884.884,0,0,0,.575-.178.931.931,0,0,0,.2-.623c.233-4-.465-8.015-.24-12.019.082-1.465.287-2.923.315-4.394.082-5.962-2.861-11.8-1.971-17.693a39.006,39.006,0,0,1,1.1-4.4c2.813-10.267,2.218-21.054,1.595-31.656a.746.746,0,0,0-.137-.479.725.725,0,0,0-.37-.2,19.473,19.473,0,0,0-17.645,3.354c-.746.6-2.628,1.184-3.121,1.9-.684,1,.212,2,.609,3.06a38.939,38.939,0,0,1,1.759,8.193Z" transform="translate(-272.512 -245.434)" fill="#3f3d56"/>
  <path id="Path_180" data-name="Path 180" d="M673.963,671.32l1.7,12.06a18.378,18.378,0,0,1,.26,3.771c-.2,2.841-1.711,5.387-2.8,8.015s-1.752,5.777-.308,8.214c.445.76,1.068,1.41,1.472,2.2a8.843,8.843,0,0,1,.685,3.854l.465,17.112a107.685,107.685,0,0,0,15.866-.089.884.884,0,0,0,.575-.178.931.931,0,0,0,.2-.623c.233-4-.465-8.015-.24-12.019.082-1.465.287-2.923.315-4.394.082-5.962-2.861-11.8-1.971-17.693a39.006,39.006,0,0,1,1.1-4.4c2.813-10.267,2.218-21.054,1.595-31.656a.746.746,0,0,0-.137-.479.725.725,0,0,0-.37-.2,19.473,19.473,0,0,0-17.645,3.354c-.746.6-2.628,1.184-3.121,1.9-.684,1,.212,2,.609,3.06a38.939,38.939,0,0,1,1.759,8.193Z" transform="translate(-272.512 -245.434)" opacity="0.1"/>
  <path id="Path_181" data-name="Path 181" d="M709.806,665.759a29.67,29.67,0,0,0-2.355,5c-1.246,4.716,1.978,9.583,1.595,14.415-.123,1.526-.6,3.012-.63,4.538a4.234,4.234,0,0,0,1.882,3.929c.91.465,2.053.418,2.909.951,1.444.883,1.608,2.888,1.465,4.572s-.383,3.566.685,4.88c.815,1.02,2.211,1.417,3.087,2.382a11.749,11.749,0,0,1,1.321,2.231c1.307,2.286,3.7,3.682,5.654,5.476s3.614,4.422,2.738,6.906c-.643,1.821-2.45,2.943-4.189,3.8a44.451,44.451,0,0,1-9.973,3.525,2.408,2.408,0,0,1-1.143.062,2.443,2.443,0,0,1-1-.684c-2.019-1.978-4.107-4.052-5.038-6.715a6.891,6.891,0,0,0-.767-1.834c-1.068-1.5-3.32-1.444-4.839-2.478-1.78-1.212-2.211-3.614-3.374-5.428s-2.868-2.9-4.107-4.49c-2.094-2.656-2.608-6.2-4.107-9.233-.637-1.287-1.451-2.491-1.958-3.833a20.932,20.932,0,0,1-.938-4.956c-.965-7.995-3.422-16.044-1.875-23.956.342-1.739.869-3.422,1.088-5.216.376-3.1-.219-6.276.24-9.37a2.581,2.581,0,0,1,1.034-1.992,2.736,2.736,0,0,1,1.177-.24,80.259,80.259,0,0,1,12.17.274c2.053.2,4.353.616,5.585,2.293,1.047,1.437.992,3.361,1.328,5.106.418,2.149,1.506,3.32,2.649,5S710.648,664.021,709.806,665.759Z" transform="translate(-276.616 -243.507)" fill="#3f3d56"/>
  <path id="Path_182" data-name="Path 182" d="M680,753.949a4.8,4.8,0,0,1,3.114.616c1.04.856,1.054,2.423.89,3.758a56.407,56.407,0,0,1-2.93,10.951l-3.641,10.684a25.092,25.092,0,0,0-1.273,4.709c-.356,2.738.192,5.476.26,8.214a6.436,6.436,0,0,1-.945,3.99c-1.547,1.992-4.565,1.759-7.05,1.369L656.3,796.187a14.421,14.421,0,0,1-3-.732,20.958,20.958,0,0,1-2.909-1.636,44.763,44.763,0,0,0-7.529-3.422c-1.136-.424-2.409-.965-2.82-2.108-.486-1.369.6-2.875,1.937-3.422a10.491,10.491,0,0,1,4.292-.37,32.172,32.172,0,0,0,10.541-1.424,6.667,6.667,0,0,0,2.779-1.437,6.845,6.845,0,0,0,1.6-3.224,48.029,48.029,0,0,0,1.834-10.951c.144-2.738.048-5.476.157-8.214.068-1.622-.089-6.845,1.335-7.96,1.088-.835,5.565,1.472,7.036,1.807A34.221,34.221,0,0,0,680,753.949Z" transform="translate(-262.598 -276.078)" fill="#2f2e41"/>
  <path id="Path_183" data-name="Path 183" d="M744.163,761.011c1.184,3.922,1.369,8.07,2.136,12.1s2.122,8.145,5.113,10.951a6.756,6.756,0,0,1,1.485,1.643,3.464,3.464,0,0,1-.513,3.58,8.986,8.986,0,0,1-3,2.307c-7.728,4.216-16.427,6.345-25.2,7.4a10.617,10.617,0,0,1-4.668-.171,3.85,3.85,0,0,1-2.786-3.422,1.746,1.746,0,0,1,.411-1.184,2.553,2.553,0,0,1,.924-.541c3.231-1.328,6.509-2.772,9.008-5.222s4.066-6.16,3.1-9.487a18.767,18.767,0,0,0-2.307-4.387,74.156,74.156,0,0,1-3.422-6.632l-3.012-6.318a16.568,16.568,0,0,1-1.923-5.791,27.789,27.789,0,0,0,11.1-1.78,17.456,17.456,0,0,0,4.565-2.738c1.164-.972,2.224-2.786,3.792-1.52,1.259,1.013,2.053,3.867,2.793,5.312a39.008,39.008,0,0,1,2.4,5.9Z" transform="translate(-286.832 -275.529)" fill="#2f2e41"/>
  <path id="Path_184" data-name="Path 184" d="M685.931,534.94c.3,2.628,2.847,4.36,5.277,5.4l-15.38,4.908c.992-1.9.192-4.23-.794-6.16A34.86,34.86,0,0,0,672.3,534.7c-.151-.212-.322-.479-.212-.726a.766.766,0,0,1,.431-.335,38.678,38.678,0,0,1,9.877-3.381c1-.144,2.888-.541,3.635.472S685.787,533.729,685.931,534.94Z" transform="translate(-272.734 -206.33)" fill="#fbbebe"/>
  <path id="Path_185" data-name="Path 185" d="M685.931,534.94c.3,2.628,2.847,4.36,5.277,5.4l-15.38,4.908c.992-1.9.192-4.23-.794-6.16A34.86,34.86,0,0,0,672.3,534.7c-.151-.212-.322-.479-.212-.726a.766.766,0,0,1,.431-.335,38.678,38.678,0,0,1,9.877-3.381c1-.144,2.888-.541,3.635.472S685.787,533.729,685.931,534.94Z" transform="translate(-272.734 -206.33)" opacity="0.1"/>
  <circle id="Ellipse_57" data-name="Ellipse 57" cx="12.06" cy="12.06" r="12.06" transform="translate(392.197 306.619)" fill="#fbbebe"/>
  <path id="Path_186" data-name="Path 186" d="M663.524,628.645c1.17,1.4,3.231,1.677,5.031,1.369,4.209-.684,7.652-3.785,11.773-4.9,5.051-1.369,10.4.39,15.168,2.546s9.514,4.791,14.73,5.161c-4.716-10.513-2.019-23.162-6.53-33.765-1.1-2.594-2.642-5.092-2.888-7.9-.308-3.484,1.431-6.845,1.7-10.308.246-3.087-.685-6.16-1.574-9.1l-3.3-10.842c-1.232-4.045-2.5-8.159-4.887-11.636-.883-1.28-1.15-3.874-2.491-4.648-2.93-1.691-7.372.438-10.548.554s-6.071,2.375-7.926,4.928a31.688,31.688,0,0,0-4.107,9.083,86.351,86.351,0,0,0-3.648,14.531c-.1.739-.192,1.478-.26,2.224-.684,7.029.315,14.1.37,21.164v.048c.068,8.96-1.369,17.864-1.636,26.817C662.47,625.606,662.511,627.392,663.524,628.645Z" transform="translate(-269.719 -210.719)" fill="#2f2e41"/>
  <path id="Path_187" data-name="Path 187" d="M664.641,600.384a15.444,15.444,0,0,0,6.331-3.792,26.471,26.471,0,0,0,4.2-4.791,34.129,34.129,0,0,0,3.621-7.577,88.545,88.545,0,0,0,4.791-22.088c.178-2.053.233-4.257-.993-5.886a4.956,4.956,0,0,0-5.989-1.451c-1.615.787-2.663,2.382-3.635,3.908a50.468,50.468,0,0,0-5.1,9.459c-.548,1.492-.951,3.025-1.485,4.524a41.745,41.745,0,0,1-1.875,4.333c-.1.739-.192,1.478-.26,2.225C663.614,586.277,664.586,593.32,664.641,600.384Z" transform="translate(-270.206 -213.991)" opacity="0.1"/>
  <path id="Path_188" data-name="Path 188" d="M667.659,554.313c1.225,1.629,1.17,3.854,1,5.88a88.414,88.414,0,0,1-4.791,22.088,33.833,33.833,0,0,1-3.621,7.639,26.741,26.741,0,0,1-4.2,4.791c-2.327,2.122-5.161,4.018-8.316,4.045a15.852,15.852,0,0,1-5.175-1.129l-25.7-8.747c-.26-1.465.773-3.176,1.259-4.586l1.369-4.059a5.161,5.161,0,0,1,1.862-2.943c1.02-.609,2.635.226,3.484.9s1.492,1.567,2.327,2.259a13.147,13.147,0,0,0,5.681,2.259l5.77,1.294a24.1,24.1,0,0,0,6.42.856c1.608-4.914,4.668-9.24,6.4-14.114.534-1.492.938-3.032,1.492-4.524a50.285,50.285,0,0,1,5.1-9.459,9.917,9.917,0,0,1,3.635-3.908A4.949,4.949,0,0,1,667.659,554.313Z" transform="translate(-255.304 -213.376)" fill="#2f2e41"/>
  <path id="Path_189" data-name="Path 189" d="M677.031,517.546a6.083,6.083,0,0,0-.726-2.259,1.9,1.9,0,0,0-2.053-.9c-1.2.376-1.608,2.238-2.868,2.3-.849.041-1.458-.821-1.725-1.629a4.966,4.966,0,0,0-1.047-2.3,3.9,3.9,0,0,0-1.492-.684c-2.923-.924-5.941-2.628-6.913-5.537a3.313,3.313,0,0,1-.157-1.855c.445-1.841,2.738-2.4,4.483-3.06s3.422-1.8,5.133-2.663a8.436,8.436,0,0,1,5.578-1.034,29.078,29.078,0,0,1,2.813,1.047c2.834.986,6.3.527,8.5,2.574a8.782,8.782,0,0,1,2.053,3.587c1.533,4.257,2.505,9.309-.034,13.046-1.567,2.307-3.087,4.942-6.1,5.222C678.975,523.693,677.585,520.517,677.031,517.546Z" transform="translate(-268.927 -196.143)" fill="#2f2e41"/>
  <g id="Group_24" data-name="Group 24" transform="translate(391.084 306.27)" opacity="0.1">
    <path id="Path_190" data-name="Path 190" d="M671.691,515.741a5.026,5.026,0,0,0-1.04-2.3,3.9,3.9,0,0,0-1.492-.684c-2.93-.924-5.941-2.628-6.92-5.537a3.374,3.374,0,0,1-.151-1.855,2.32,2.32,0,0,1,.363-.815,3.587,3.587,0,0,0-2.361,2.266,3.312,3.312,0,0,0,.157,1.855c.972,2.909,3.99,4.613,6.913,5.537a3.9,3.9,0,0,1,1.492.685,5,5,0,0,1,1.047,2.3c.274.815.876,1.67,1.725,1.629s1.259-.815,1.8-1.465A2.178,2.178,0,0,1,671.691,515.741Z" transform="translate(-660.023 -504.55)"/>
    <path id="Path_191" data-name="Path 191" d="M691.306,528.893c-3.518.322-4.908-2.882-5.476-5.832a5.955,5.955,0,0,0-.685-2.259,1.9,1.9,0,0,0-2.053-.9,3.641,3.641,0,0,0-1.513,1.369,2.054,2.054,0,0,1,1.547.958,6.085,6.085,0,0,1,.726,2.259c.554,2.95,1.944,6.16,5.476,5.832a5.647,5.647,0,0,0,3.614-1.875A5.105,5.105,0,0,1,691.306,528.893Z" transform="translate(-666.825 -509.379)"/>
  </g>
  <ellipse id="Ellipse_58" data-name="Ellipse 58" cx="22.101" cy="4.251" rx="22.101" ry="4.251" transform="translate(534.442 444.606)" fill="#01579b"/>
  <ellipse id="Ellipse_59" data-name="Ellipse 59" cx="2.574" cy="3.368" rx="2.574" ry="3.368" transform="translate(553.6 443.682)" fill="#3f3d56"/>
  <ellipse id="Ellipse_60" data-name="Ellipse 60" cx="2.574" cy="3.368" rx="2.574" ry="3.368" transform="translate(553.6 439.562)" fill="#3f3d56"/>
  <ellipse id="Ellipse_61" data-name="Ellipse 61" cx="2.574" cy="3.368" rx="2.574" ry="3.368" transform="translate(553.6 435.448)" fill="#3f3d56"/>
  <ellipse id="Ellipse_62" data-name="Ellipse 62" cx="2.574" cy="3.368" rx="2.574" ry="3.368" transform="translate(553.6 431.328)" fill="#3f3d56"/>
  <ellipse id="Ellipse_63" data-name="Ellipse 63" cx="2.574" cy="3.368" rx="2.574" ry="3.368" transform="translate(553.6 427.207)" fill="#3f3d56"/>
  <ellipse id="Ellipse_64" data-name="Ellipse 64" cx="2.574" cy="3.368" rx="2.574" ry="3.368" transform="translate(553.6 423.094)" fill="#3f3d56"/>
  <ellipse id="Ellipse_65" data-name="Ellipse 65" cx="2.574" cy="3.368" rx="2.574" ry="3.368" transform="translate(553.6 418.973)" fill="#3f3d56"/>
  <path id="Path_192" data-name="Path 192" d="M905.148,623.812a12.45,12.45,0,0,0,.958-1.41l-6.762-1.109,7.317.048a12.4,12.4,0,0,0,.233-9.767l-9.815,5.092,9.049-6.653a12.32,12.32,0,1,0-20.342,13.8,12.266,12.266,0,0,0-1.41,2.245l8.782,4.565-9.363-3.142a12.32,12.32,0,0,0,1.992,11.554,12.32,12.32,0,1,0,19.377,0,12.321,12.321,0,0,0,0-15.243Z" transform="translate(-339.343 -229.623)" fill="#01579b"/>
  <path id="Path_193" data-name="Path 193" d="M883.12,644.016a12.258,12.258,0,0,0,2.656,7.625,12.32,12.32,0,1,0,19.377,0C906.789,649.54,883.12,642.634,883.12,644.016Z" transform="translate(-339.335 -242.23)" opacity="0.1"/>
  <ellipse id="Ellipse_66" data-name="Ellipse 66" cx="31.821" cy="6.119" rx="31.821" ry="6.119" transform="translate(69.767 525.619)" fill="#01579b"/>
  <ellipse id="Ellipse_67" data-name="Ellipse 67" cx="3.703" cy="4.853" rx="3.703" ry="4.853" transform="translate(97.351 524.285)" fill="#3f3d56"/>
  <ellipse id="Ellipse_68" data-name="Ellipse 68" cx="3.703" cy="4.853" rx="3.703" ry="4.853" transform="translate(97.351 518.357)" fill="#3f3d56"/>
  <ellipse id="Ellipse_69" data-name="Ellipse 69" cx="3.703" cy="4.853" rx="3.703" ry="4.853" transform="translate(97.351 512.43)" fill="#3f3d56"/>
  <ellipse id="Ellipse_70" data-name="Ellipse 70" cx="3.703" cy="4.853" rx="3.703" ry="4.853" transform="translate(97.351 506.502)" fill="#3f3d56"/>
  <ellipse id="Ellipse_71" data-name="Ellipse 71" cx="3.703" cy="4.853" rx="3.703" ry="4.853" transform="translate(97.351 500.575)" fill="#3f3d56"/>
  <ellipse id="Ellipse_72" data-name="Ellipse 72" cx="3.703" cy="4.853" rx="3.703" ry="4.853" transform="translate(97.351 494.641)" fill="#3f3d56"/>
  <ellipse id="Ellipse_73" data-name="Ellipse 73" cx="3.703" cy="4.853" rx="3.703" ry="4.853" transform="translate(97.351 488.713)" fill="#3f3d56"/>
  <path id="Path_194" data-name="Path 194" d="M241.917,705.674a18.643,18.643,0,0,0,1.369-2.053l-9.733-1.6,10.527.082a17.8,17.8,0,0,0,.335-14.066L230.3,695.386l13-9.582a17.748,17.748,0,1,0-29.316,19.849,17.676,17.676,0,0,0-2.053,3.231l12.642,6.571L211.1,710.93a17.748,17.748,0,0,0,2.916,16.694,17.748,17.748,0,1,0,27.9,0,17.741,17.741,0,0,0,0-21.944Z" transform="translate(-126.995 -252.669)" fill="#01579b"/>
  <path id="Path_195" data-name="Path 195" d="M210.239,734.876a17.691,17.691,0,0,0,3.8,10.949,17.748,17.748,0,1,0,27.9,0C244.3,742.8,210.239,732.857,210.239,734.876Z" transform="translate(-127.015 -270.872)" opacity="0.1"/>
</svg>
