<svg xmlns="http://www.w3.org/2000/svg" width="99.486" height="15" viewBox="0 0 99.486 15">
  <g id="Group_6" data-name="Group 6" transform="translate(-192 -305)" opacity="0.485">
    <g id="aws" transform="translate(192 305)">
      <path id="Path_1" data-name="Path 1" d="M20.132,6.548a2.524,2.524,0,0,0,.092.742,4.465,4.465,0,0,0,.267.6.363.363,0,0,1,.058.192.33.33,0,0,1-.159.25l-.526.35a.4.4,0,0,1-.217.075.384.384,0,0,1-.25-.117,2.581,2.581,0,0,1-.3-.392c-.083-.142-.167-.3-.259-.492a3.082,3.082,0,0,1-2.453,1.151,2.286,2.286,0,0,1-1.669-.6,2.143,2.143,0,0,1-.617-1.6,2.148,2.148,0,0,1,.759-1.719A3.035,3.035,0,0,1,16.9,4.337a6.605,6.605,0,0,1,.884.067c.309.042.626.108.959.184V3.978a1.849,1.849,0,0,0-.392-1.335,1.92,1.92,0,0,0-1.36-.384,3.8,3.8,0,0,0-.9.108,6.647,6.647,0,0,0-.9.284,2.394,2.394,0,0,1-.292.108.512.512,0,0,1-.133.025c-.117,0-.175-.083-.175-.259V2.118a.528.528,0,0,1,.058-.292.625.625,0,0,1,.234-.175,4.8,4.8,0,0,1,1.051-.375,5.058,5.058,0,0,1,1.3-.159,3.049,3.049,0,0,1,2.186.676,2.761,2.761,0,0,1,.692,2.052v2.7ZM16.745,7.816a2.7,2.7,0,0,0,.859-.15,1.859,1.859,0,0,0,.793-.534A1.324,1.324,0,0,0,18.68,6.6a3,3,0,0,0,.083-.726v-.35A6.967,6.967,0,0,0,18,5.38a6.286,6.286,0,0,0-.784-.05,1.923,1.923,0,0,0-1.243.334,1.163,1.163,0,0,0-.409.959,1.076,1.076,0,0,0,1.185,1.193Zm6.7.9a.466.466,0,0,1-.317-.083.68.68,0,0,1-.175-.325L20.991,1.859a1.462,1.462,0,0,1-.075-.334.183.183,0,0,1,.2-.209h.818a.462.462,0,0,1,.325.083.683.683,0,0,1,.167.325l1.4,5.523,1.3-5.523a.585.585,0,0,1,.159-.325.574.574,0,0,1,.334-.083h.667a.5.5,0,0,1,.334.083.562.562,0,0,1,.159.325L28.1,7.315l1.443-5.59a.715.715,0,0,1,.167-.325.544.544,0,0,1,.325-.083h.776a.185.185,0,0,1,.209.209A.832.832,0,0,1,31,1.659a1.187,1.187,0,0,1-.058.209L28.933,8.316a.64.64,0,0,1-.175.325.534.534,0,0,1-.317.083h-.717a.5.5,0,0,1-.334-.083.591.591,0,0,1-.159-.334L25.938,2.927,24.653,8.3a.651.651,0,0,1-.159.334.517.517,0,0,1-.334.083Zm10.72.225a5.521,5.521,0,0,1-1.285-.15,3.8,3.8,0,0,1-.959-.334.6.6,0,0,1-.259-.234.589.589,0,0,1-.05-.234V7.566c0-.175.067-.259.192-.259a.472.472,0,0,1,.15.025c.05.017.125.05.209.083a4.538,4.538,0,0,0,.918.292,5.01,5.01,0,0,0,.993.1,2.251,2.251,0,0,0,1.218-.275.9.9,0,0,0,.434-.793.812.812,0,0,0-.225-.584,2.093,2.093,0,0,0-.843-.434l-1.21-.375A2.545,2.545,0,0,1,32.112,4.5a1.988,1.988,0,0,1-.417-1.21,1.857,1.857,0,0,1,.225-.926,2.145,2.145,0,0,1,.6-.684,2.648,2.648,0,0,1,.868-.434A3.636,3.636,0,0,1,34.439,1.1,4.188,4.188,0,0,1,35,1.133c.192.025.367.058.542.092s.325.083.476.133a1.821,1.821,0,0,1,.35.15.721.721,0,0,1,.25.209.45.45,0,0,1,.075.275v.392c0,.175-.067.267-.192.267a.868.868,0,0,1-.317-.1,3.817,3.817,0,0,0-1.6-.325,2.153,2.153,0,0,0-1.11.234.806.806,0,0,0-.392.742.788.788,0,0,0,.25.592,2.492,2.492,0,0,0,.918.459l1.185.375a2.537,2.537,0,0,1,1.293.8A1.888,1.888,0,0,1,37.109,6.6a2.145,2.145,0,0,1-.217.968,2.244,2.244,0,0,1-.609.734,2.689,2.689,0,0,1-.926.467A3.967,3.967,0,0,1,34.164,8.942Z" transform="translate(-13.063 -1.1)" fill="#01579b"/>
      <g id="Group_1" data-name="Group 1" transform="translate(0 9.351)">
        <path id="Path_2" data-name="Path 2" d="M24.346,121.192a18,18,0,0,1-10.161,3.1,18.383,18.383,0,0,1-12.405-4.73c-.259-.234-.025-.551.284-.367a24.638,24.638,0,0,0,21.883,1.36C24.4,120.349,24.8,120.858,24.346,121.192Z" transform="translate(-1.668 -118.647)" fill="#01579b" fill-rule="evenodd"/>
        <path id="Path_3" data-name="Path 3" d="M249.425,114.436c-.35-.45-2.319-.217-3.212-.108-.267.033-.309-.2-.067-.375,1.568-1.1,4.146-.784,4.447-.417s-.083,2.953-1.552,4.188c-.225.192-.442.092-.342-.159C249.033,116.739,249.775,114.878,249.425,114.436Z" transform="translate(-225.604 -113.192)" fill="#01579b" fill-rule="evenodd"/>
      </g>
    </g>
    <path id="azure" d="M10.271,0,4.729,4.806,0,13.294H4.264Zm.737,1.124L8.643,7.791l4.535,5.7L4.38,15H18.8Z" transform="translate(224.231 305)" fill="#01579b"/>
    <g id="gcp" transform="translate(250.192 305)">
      <path id="Path_4" data-name="Path 4" d="M40.887,4.141l1.622-1.622.108-.683A7.306,7.306,0,0,0,32.3,2.472a7.5,7.5,0,0,0-1.582,2.963l.581-.082,3.244-.535.25-.256a4.063,4.063,0,0,1,5.549-.45Z" transform="translate(-28.478 0)" fill="#01579b"/>
      <path id="Path_5" data-name="Path 5" d="M129.447,28.747a7.307,7.307,0,0,0-2.2-3.551l-2.276,2.276a4.046,4.046,0,0,1,1.485,3.21v.4a2.015,2.015,0,1,1,0,4.029H122.4l-.4.433v2.43l.4.381h4.058a5.255,5.255,0,0,0,2.993-9.612" transform="translate(-113.106 -23.36)" fill="#01579b"/>
      <path id="Path_6" data-name="Path 6" d="M31.4,162.218h4.052v-3.244H31.4a1.988,1.988,0,0,1-.831-.182l-.575.176-1.633,1.622-.142.552a5.258,5.258,0,0,0,3.181,1.076" transform="translate(-26.166 -147.218)" fill="#01579b"/>
      <path id="Path_7" data-name="Path 7" d="M5.239,61.425a5.27,5.27,0,0,0-3.181,9.447l2.35-2.35a2.026,2.026,0,1,1,2.68-2.681l2.35-2.35a5.264,5.264,0,0,0-4.2-2.066" transform="translate(0 -56.948)" fill="#01579b"/>
    </g>
    <g id="layer1" transform="translate(276.028 305)">
      <g id="g3052" transform="translate(0)">
        <path id="path3055" d="M24,184.754a1.035,1.035,0,0,0-.394.1l-5.374,2.568a1.021,1.021,0,0,0-.556.691l-1.326,5.768a1.012,1.012,0,0,0,.14.781q.027.042.058.081l3.72,4.625a1.031,1.031,0,0,0,.8.384h5.965a1.031,1.031,0,0,0,.8-.383l3.718-4.626a1.013,1.013,0,0,0,.2-.863l-1.328-5.768a1.021,1.021,0,0,0-.556-.691L24.5,184.853A1.035,1.035,0,0,0,24,184.754Z" transform="translate(-16.326 -184.752)" fill="#01579b" stroke="#fff" stroke-width="0"/>
        <path id="path3059" d="M115.785,274.06a.341.341,0,0,0-.322.357s0,.006,0,.009c0,.027,0,.059,0,.082a2.68,2.68,0,0,0,.044.306,3.006,3.006,0,0,1,.036.584.351.351,0,0,1-.1.166l-.008.136a4.186,4.186,0,0,0-.581.089,4.138,4.138,0,0,0-2.1,1.2l-.116-.082a.254.254,0,0,1-.191-.019,3.005,3.005,0,0,1-.434-.392,2.69,2.69,0,0,0-.212-.225c-.02-.017-.05-.04-.071-.057a.383.383,0,0,0-.224-.085.31.31,0,0,0-.256.113.341.341,0,0,0,.079.474l0,0c.021.017.047.039.067.054a2.669,2.669,0,0,0,.267.156,3.008,3.008,0,0,1,.478.336.358.358,0,0,1,.065.186l.1.092a4.162,4.162,0,0,0-.656,2.9l-.135.039a.446.446,0,0,1-.138.14,3.005,3.005,0,0,1-.577.095,2.692,2.692,0,0,0-.309.025c-.025,0-.059.014-.086.02H110.4a.323.323,0,1,0,.143.627h0l.006,0c.027-.006.06-.012.083-.019a2.679,2.679,0,0,0,.289-.111,3.011,3.011,0,0,1,.561-.165.355.355,0,0,1,.185.065l.14-.024a4.186,4.186,0,0,0,1.855,2.316l-.058.14a.319.319,0,0,1,.029.182,3.142,3.142,0,0,1-.291.523,2.689,2.689,0,0,0-.173.257c-.013.024-.029.061-.041.087a.323.323,0,1,0,.581.276h0s0,0,0,0c.012-.025.03-.058.04-.082a2.685,2.685,0,0,0,.093-.295,2.25,2.25,0,0,1,.249-.578.261.261,0,0,1,.139-.067l.073-.132a4.164,4.164,0,0,0,2.969.008l.069.124a.255.255,0,0,1,.164.1,3.005,3.005,0,0,1,.221.541,2.686,2.686,0,0,0,.093.295c.01.024.028.057.04.083a.323.323,0,1,0,.581-.275c-.012-.025-.029-.062-.042-.087a2.7,2.7,0,0,0-.173-.256,3,3,0,0,1-.285-.511.252.252,0,0,1,.025-.19,1.106,1.106,0,0,1-.054-.13,4.186,4.186,0,0,0,1.854-2.333l.137.024a.254.254,0,0,1,.18-.067,3.007,3.007,0,0,1,.561.165,2.692,2.692,0,0,0,.289.111c.023.006.057.012.083.018l.006,0h0a.323.323,0,1,0,.143-.627c-.028-.006-.067-.017-.093-.022a2.693,2.693,0,0,0-.309-.025,3,3,0,0,1-.577-.095.361.361,0,0,1-.139-.14l-.13-.038a4.179,4.179,0,0,0-.67-2.9l.114-.1a.254.254,0,0,1,.06-.182,3,3,0,0,1,.478-.336,2.692,2.692,0,0,0,.267-.156c.021-.015.049-.04.071-.057a.323.323,0,1,0-.4-.5c-.022.017-.052.04-.071.057a2.7,2.7,0,0,0-.212.225,3.013,3.013,0,0,1-.434.392.358.358,0,0,1-.2.021l-.122.087a4.216,4.216,0,0,0-2.67-1.29c0-.043-.007-.12-.008-.144a.255.255,0,0,1-.105-.161,3.011,3.011,0,0,1,.036-.584,2.677,2.677,0,0,0,.044-.306c0-.026,0-.063,0-.091A.341.341,0,0,0,115.785,274.06Zm-.4,2.495-.1,1.687-.007,0a.284.284,0,0,1-.45.217h0l-1.384-.981a3.314,3.314,0,0,1,1.6-.869A3.4,3.4,0,0,1,115.382,276.555Zm.806,0a3.342,3.342,0,0,1,1.927.929l-1.375.975,0,0a.284.284,0,0,1-.451-.216h0Zm-3.247,1.559,1.263,1.13v.007a.283.283,0,0,1-.111.487v.005l-1.619.467A3.313,3.313,0,0,1,112.941,278.114Zm5.678,0a3.374,3.374,0,0,1,.485,2.091l-1.628-.469v-.007a.284.284,0,0,1-.111-.487v0l1.256-1.124Zm-3.094,1.217h.518l.322.4-.115.5-.465.223-.466-.224-.115-.5Zm1.659,1.376a.285.285,0,0,1,.065,0l0,0,1.675.283a3.317,3.317,0,0,1-1.341,1.685l-.65-1.571,0,0a.285.285,0,0,1,.246-.4Zm-2.813.007a.284.284,0,0,1,.256.4l0,.006-.643,1.555A3.331,3.331,0,0,1,112.653,281l1.661-.282,0,0A.288.288,0,0,1,114.372,280.714Zm1.4.681a.286.286,0,0,1,.26.149h.006l.819,1.479a3.392,3.392,0,0,1-.327.091,3.326,3.326,0,0,1-1.815-.094l.817-1.476h0A.284.284,0,0,1,115.774,281.395Z" transform="translate(-108.056 -272.095)" fill="#fff" stroke="#fff" stroke-width="0.25"/>
      </g>
    </g>
  </g>
</svg>
