<svg id="Group_30" data-name="Group 30" xmlns="http://www.w3.org/2000/svg" width="991.14" height="770.178" viewBox="0 0 991.14 770.178">
  <path id="Path_230" data-name="Path 230" d="M394.011,64.911l-157.853,85.5a40.156,40.156,0,1,1-70.587,38.234L111.748,217.8,251.167,475.2,533.43,322.305Z" transform="translate(-104.43 -64.911)" fill="#e4ecf2"/>
  <circle id="Ellipse_100" data-name="Ellipse 100" cx="32.587" cy="32.587" r="32.587" transform="translate(62.016 73.081)" fill="#01579b"/>
  <path id="Path_231" data-name="Path 231" d="M790.385,753.975,961.057,698.3a40.156,40.156,0,1,1,76.319-24.894l58.194-18.982-90.777-278.3L699.608,475.679Z" transform="translate(-104.43 -64.911)" fill="#e4ecf2"/>
  <circle id="Ellipse_101" data-name="Ellipse 101" cx="32.587" cy="32.587" r="32.587" transform="translate(864.188 587.657)" fill="#01579b"/>
  <rect id="Rectangle_35" data-name="Rectangle 35" width="788" height="358" transform="translate(115.5 152.678)" fill="#3f3d56"/>
  <rect id="Rectangle_36" data-name="Rectangle 36" width="762" height="325" transform="translate(128.5 165.678)" fill="#fff"/>
  <rect id="Rectangle_37" data-name="Rectangle 37" width="74" height="25" transform="translate(739 475.178)" fill="#3f3d56"/>
  <rect id="Rectangle_38" data-name="Rectangle 38" width="54" height="7" transform="translate(681 494.178)" fill="#01579b"/>
  <path id="Path_232" data-name="Path 232" d="M190.5,288.678h291l45.116,21.979L598.5,345.678l47-88h133" fill="none" stroke="#3f3d56" stroke-miterlimit="10" stroke-width="2"/>
  <path id="Path_233" data-name="Path 233" d="M304.925,288.678l21.575,51h53" fill="none" stroke="#3f3d56" stroke-miterlimit="10" stroke-width="2"/>
  <path id="Path_234" data-name="Path 234" d="M385.807,288.678l73.693-40h52" fill="none" stroke="#3f3d56" stroke-miterlimit="10" stroke-width="2"/>
  <circle id="Ellipse_102" data-name="Ellipse 102" cx="9" cy="9" r="9" transform="translate(295.5 279.678)" fill="#01579b"/>
  <circle id="Ellipse_103" data-name="Ellipse 103" cx="9" cy="9" r="9" transform="translate(379.5 279.678)" fill="#01579b"/>
  <path id="Path_235" data-name="Path 235" d="M526.5,310.678l6,89h52" fill="none" stroke="#3f3d56" stroke-miterlimit="10" stroke-width="2"/>
  <path id="Path_236" data-name="Path 236" d="M626.65,292.971,569.5,248.678h54" fill="none" stroke="#3f3d56" stroke-miterlimit="10" stroke-width="2"/>
  <path id="Path_237" data-name="Path 237" d="M721.051,257.678l55.449,44h52" fill="none" stroke="#3f3d56" stroke-miterlimit="10" stroke-width="2"/>
  <circle id="Ellipse_104" data-name="Ellipse 104" cx="9" cy="9" r="9" transform="translate(517.5 301.678)" fill="#01579b"/>
  <circle id="Ellipse_105" data-name="Ellipse 105" cx="9" cy="9" r="9" transform="translate(711.5 248.678)" fill="#01579b"/>
  <circle id="Ellipse_106" data-name="Ellipse 106" cx="9" cy="9" r="9" transform="translate(617.5 283.678)" fill="#01579b"/>
  <line id="Line_1" data-name="Line 1" x2="52" transform="translate(327.5 347.678)" fill="none" stroke="#3f3d56" stroke-miterlimit="10" stroke-width="2"/>
  <path id="Path_238" data-name="Path 238" d="M615.93,322.589Z" transform="translate(-104.43 -64.911)" fill="none" stroke="#3f3d56" stroke-miterlimit="10" stroke-width="2"/>
  <path id="Path_239" data-name="Path 239" d="M727.93,321.589Z" transform="translate(-104.43 -64.911)" fill="none" stroke="#3f3d56" stroke-miterlimit="10" stroke-width="2"/>
  <path id="Path_240" data-name="Path 240" d="M727.93,329.589Z" transform="translate(-104.43 -64.911)" fill="none" stroke="#3f3d56" stroke-miterlimit="10" stroke-width="2"/>
  <path id="Path_241" data-name="Path 241" d="M932.93,374.589Z" transform="translate(-104.43 -64.911)" fill="none" stroke="#3f3d56" stroke-miterlimit="10" stroke-width="2"/>
  <path id="Path_242" data-name="Path 242" d="M913.93,382.589Z" transform="translate(-104.43 -64.911)" fill="none" stroke="#3f3d56" stroke-miterlimit="10" stroke-width="2"/>
  <path id="Path_243" data-name="Path 243" d="M688.93,472.589Z" transform="translate(-104.43 -64.911)" fill="none" stroke="#3f3d56" stroke-miterlimit="10" stroke-width="2"/>
  <circle id="Ellipse_107" data-name="Ellipse 107" cx="14.756" cy="14.756" r="14.756" transform="translate(794.786 60.774)" fill="none" stroke="#3f3d56" stroke-miterlimit="10" stroke-width="2"/>
  <ellipse id="Ellipse_108" data-name="Ellipse 108" cx="152" cy="28" rx="152" ry="28" transform="translate(0 714.178)" fill="#f2f2f2"/>
  <path id="Path_244" data-name="Path 244" d="M256.389,493.658l-27.117,13.681,1.755,3.5,27.116-13.681Z" fill="#01579b"/>
  <path id="Path_245" data-name="Path 245" d="M356.41,533.122l-1.218,7.309s1.827,50.557-11.573,34.72S339.355,538,339.355,538l3.655-6.091Z" transform="translate(-104.43 -64.911)" fill="#fbbebe"/>
  <path id="Path_246" data-name="Path 246" d="M278.443,299.221s-2.436,25.583-3.655,26.8,18.274,24.365,18.274,24.365l17.055-15.837s-1.218-23.146,2.436-28.019S278.443,299.221,278.443,299.221Z" transform="translate(-104.43 -64.911)" fill="#fbbebe"/>
  <path id="Path_247" data-name="Path 247" d="M278.443,299.221s-2.436,25.583-3.655,26.8,18.274,24.365,18.274,24.365l17.055-15.837s-1.218-23.146,2.436-28.019S278.443,299.221,278.443,299.221Z" transform="translate(-104.43 -64.911)" opacity="0.1"/>
  <path id="Path_248" data-name="Path 248" d="M128.939,700.894v21.928l-8.528,1.219-12.182-3.655,3.654-23.147Z" fill="#3f3d56"/>
  <path id="Path_249" data-name="Path 249" d="M222.4,776.769s-3.655-9.746-9.746-8.528-7.309,8.528-7.309,8.528-4.873,18.273-12.182,24.365-14.619,21.928,0,24.365,26.8-3.655,26.8-4.873,3.655-8.528,9.746-9.746,10.964-2.436,10.964-7.309-3.655-9.746-3.655-9.746-1.218-23.108-3.655-20.082a24.234,24.234,0,0,0-3.655,7.9Z" transform="translate(-104.43 -64.911)" fill="#2f2e41"/>
  <path id="Path_250" data-name="Path 250" d="M181.323,689.93,176.45,708.2l12.182,2.437,6.091-6.091,1.218-15.837Z" fill="#3f3d56"/>
  <path id="Path_251" data-name="Path 251" d="M284.534,770.678s4.873-3.655,7.309-3.655H295.5s0-8.528,6.091-8.528,4.873,6.091,4.873,6.091,13.4,20.71,17.055,24.365,23.146,14.619,7.309,19.492-26.8,4.873-34.111-3.655c0,0-7.309-3.655-12.182-3.655s-10.964-2.436-10.964-6.091,3.655-10.964,3.655-10.964,2.436-21.928,3.655-19.492S284.534,770.678,284.534,770.678Z" transform="translate(-104.43 -64.911)" fill="#2f2e41"/>
  <path id="Path_252" data-name="Path 252" d="M232.15,474.647v40.2s-13.4,77.967-13.4,103.55-20.71,147.406-10.964,149.843,32.892,6.091,34.111,2.436,9.746-119.387,10.964-120.605,26.8-97.459,26.8-97.459l4.873,1.218,2.436,109.641s-12.182,98.677-6.091,98.677,31.674-1.218,31.674-8.528,13.4-142.533,13.4-142.533,15.837-107.2,9.746-118.169-6.091-17.055-6.091-17.055Z" transform="translate(-104.43 -64.911)" fill="#2f2e41"/>
  <circle id="Ellipse_109" data-name="Ellipse 109" cx="24.365" cy="24.365" r="24.365" transform="translate(169.749 204.464)" fill="#fbbebe"/>
  <path id="Path_253" data-name="Path 253" d="M293.062,335.769s-15.228-12.791-16.446-17.664c0,0-7.919,7.919-7.919,9.137s-34.111,4.873-42.638,14.619-15.837,30.456-15.837,30.456l20.71,38.983s1.218,21.928,1.218,24.365-6.091,41.42-3.655,42.638,26.8,13.4,47.511,10.964,41.42-6.091,47.511-6.091,10.964,2.436,10.964,0-3.655-7.309-3.655-9.746-1.218-8.528-1.218-12.182-2.436-9.746-2.436-14.619,26.8-70.658,26.8-70.658-1.218-20.71-20.71-30.456-21.928-13.4-21.928-13.4-.38-7.309-1.408-7.309-4.683,10.964-14.429,12.182Z" transform="translate(-104.43 -64.911)" fill="#d0cde1"/>
  <path id="Path_254" data-name="Path 254" d="M122.847,432.883l8.528,13.4L153.3,441.41l-15.837-18.273Z" fill="#fbbebe"/>
  <path id="Path_255" data-name="Path 255" d="M346.664,366.224l7.309,9.746s14.619,70.658,12.182,96.241-4.873,45.075-4.873,45.075,4.873,18.273,1.218,18.273-25.583,1.218-25.583-2.436,2.436-26.8,2.436-26.8l-6.091-53.6-13.4-18.273Z" transform="translate(-104.43 -64.911)" fill="#d0cde1"/>
  <path id="Path_256" data-name="Path 256" d="M282,281.911c1.493-.633,3.22-.12,4.82-.39,1.878-.317,3.559-1.709,5.455-1.533a10.485,10.485,0,0,1,2.6.843,3.391,3.391,0,0,0,2.661.1,1.512,1.512,0,0,0,.579-2.271,7.52,7.52,0,0,0,4.327-1.863,3.23,3.23,0,0,1,.826-.62,2.7,2.7,0,0,1,2.122.331l2.788,1.285a3.525,3.525,0,0,1,1.593,1.139c.332.517.4,1.212.866,1.608.6.505,1.495.258,2.277.307a2.912,2.912,0,0,1,2.63,2.84c-.011.818-.309,1.822.338,2.322.375.29.908.244,1.348.422,1.139.463,1.144,2.049.976,3.267s-.085,2.825,1.086,3.2c.825.264,1.667-.3,2.524-.424,1.293-.189,2.488.619,3.639,1.238s2.679,1.036,3.676.192c.928-.785.868-2.221.613-3.41a18.789,18.789,0,0,0-1.787-4.887,3.1,3.1,0,0,1-.518-1.521,2.754,2.754,0,0,1,1.278-1.86c1.41-1.115,3.032-2.237,3.488-3.975.335-1.276-.042-2.621-.013-3.94.035-1.6.673-3.2.374-4.779-.542-2.858-3.723-4.234-5.777-6.294-2.822-2.832-3.738-7.361-7.068-9.573-2.664-1.769-6.148-1.558-9.182-2.571-3.332-1.112-6.015-3.667-9.3-4.907a12.963,12.963,0,0,0-11.019.966,11.029,11.029,0,0,1-3.24,1.655,11.648,11.648,0,0,1-2.949-.034,11.382,11.382,0,0,0-5.623,1.16,3.144,3.144,0,0,0-1.575,1.382c-.589,1.307.266,3.35-1.024,3.975-.6.291-1.312.012-1.98.027-1.3.029-2.3,1.159-2.917,2.3a11.033,11.033,0,0,1-2.044,3.29c-1.588,1.391-4.474,1.621-4.889,3.691a20.121,20.121,0,0,0,.149,2.622c-.12,1.835-2.083,3.229-1.981,5.064.118,2.117,2.808,3.152,3.527,5.147.548,1.519-.173,3.161-.669,4.7s-.645,3.506.635,4.49c.5.386,1.148.544,1.66.916,1.325.964,1.308,2.908,1.161,4.54a2.135,2.135,0,0,0,.481,1.944,1.8,1.8,0,0,0,1.472.177,6.01,6.01,0,0,0,3.8-2.862c.427-.705.512-1.327,1.288-1.7.526-.254,1.165-.027,1.7-.357C279.746,287.709,278.869,283.236,282,281.911Z" transform="translate(-104.43 -64.911)" fill="#2f2e41"/>
  <path id="Path_257" data-name="Path 257" d="M213.877,368.661l-3.655,3.655s-21.928,65.785-14.619,80.4,21.928,51.166,26.8,49.948,21.928-12.182,21.928-13.4-20.71-35.329-20.71-35.329-2.436-7.309-1.218-8.528,1.218,0,0-2.436-1.218,0,1.218-2.436,2.436-2.436,2.436-3.655,7.309-31.674,7.309-31.674Z" transform="translate(-104.43 -64.911)" fill="#d0cde1"/>
  <path id="Path_258" data-name="Path 258" d="M128.329,446.892l26.8-8.527,3.654,8.527-29.237,6.091Z" fill="#2f2e41"/>
  <path id="Path_259" data-name="Path 259" d="M128.329,446.892l26.8-8.527,3.654,8.527-29.237,6.091Z" opacity="0.1"/>
  <path id="Path_260" data-name="Path 260" d="M164.876,262.939l20.71,17.055,2.437-3.655Z" opacity="0.1"/>
  <path id="Path_261" data-name="Path 261" d="M206.3,267.812l-14.618,8.527,1.218,3.655Z" opacity="0.1"/>
</svg>
